<svg width="18" height="18" viewBox="0 0 18 18" fill="none" xmlns="http://www.w3.org/2000/svg">
<rect width="18" height="18" fill="#E5E5E5"/>
<g clip-path="url(#clip0_301_28)">
<rect width="1600" height="7666" transform="translate(-1309 -2735)" fill="white"/>
<rect x="-110" y="-136" width="351" height="184" rx="4" fill="#101010"/>
<path d="M16.4883 8.04245L13.3172 10.81L14.2671 14.9303C14.3174 15.1457 14.303 15.3711 14.2259 15.5784C14.1487 15.7857 14.0122 15.9656 13.8333 16.0957C13.6544 16.2258 13.4411 16.3003 13.2202 16.3099C12.9992 16.3194 12.7803 16.2637 12.5909 16.1495L8.99718 13.9698L5.41124 16.1495C5.2218 16.2637 5.0029 16.3194 4.78193 16.3099C4.56095 16.3003 4.34769 16.2258 4.16882 16.0957C3.98994 15.9656 3.85339 15.7857 3.77623 15.5784C3.69907 15.3711 3.68472 15.1457 3.73499 14.9303L4.68351 10.8142L1.51171 8.04245C1.34395 7.89776 1.22264 7.70677 1.163 7.49341C1.10336 7.28006 1.10803 7.05384 1.17644 6.84313C1.24485 6.63243 1.37395 6.44661 1.54754 6.30898C1.72113 6.17134 1.9315 6.08803 2.15226 6.06948L6.33304 5.70737L7.96499 1.81487C8.05021 1.61062 8.19396 1.43616 8.37814 1.31344C8.56231 1.19072 8.77868 1.12524 8.99999 1.12524C9.22131 1.12524 9.43767 1.19072 9.62185 1.31344C9.80602 1.43616 9.94977 1.61062 10.035 1.81487L11.6719 5.70737L15.8512 6.06948C16.072 6.08803 16.2824 6.17134 16.456 6.30898C16.6296 6.44661 16.7587 6.63243 16.8271 6.84313C16.8955 7.05384 16.9001 7.28006 16.8405 7.49341C16.7809 7.70677 16.6595 7.89776 16.4918 8.04245H16.4883Z" stroke="white"/>
<path d="M13.3173 10.3801V10.8099L14.2672 14.9303C14.3175 15.1457 14.3031 15.3711 14.226 15.5784C14.1488 15.7857 14.0123 15.9656 13.8334 16.0957C13.6545 16.2258 13.4413 16.3003 13.2203 16.3099C12.9993 16.3194 12.7804 16.2636 12.591 16.1495L8.9973 13.9698L5.41136 16.1495C5.22192 16.2636 5.00303 16.3194 4.78205 16.3099C4.56107 16.3003 4.34781 16.2258 4.16894 16.0957C3.99006 15.9656 3.85351 15.7857 3.77635 15.5784C3.69919 15.3711 3.68485 15.1457 3.73511 14.9303L4.68363 10.8142L1.51183 8.04245C1.34407 7.89776 1.22276 7.70677 1.16312 7.49341C1.10348 7.28006 1.10815 7.05384 1.17656 6.84313C1.24497 6.63243 1.37407 6.44661 1.54766 6.30898C1.72126 6.17134 1.93162 6.08803 2.15238 6.06948L6.33316 5.70737L7.96511 1.81487C8.05034 1.61062 8.19409 1.43616 8.37826 1.31344C8.56244 1.19072 8.7788 1.12524 9.00011 1.12524C9.22143 1.12524 9.43779 1.19072 9.62197 1.31344C9.80614 1.43616 9.94989 1.61062 10.0351 1.81487L11.672 5.70737L12.5 6C12.3264 5.86237 12.7208 6.01855 12.5 6C12.4316 5.78929 12.6736 6.13763 12.5 6C12.5684 6.21071 13.3769 10.1668 13.3173 10.3801C13.4851 10.2355 13.2577 10.5935 13.3173 10.3801Z" fill="white"/>
</g>
<defs>
<clipPath id="clip0_301_28">
<rect width="1600" height="7666" fill="white" transform="translate(-1309 -2735)"/>
</clipPath>
</defs>
</svg>
