<?xml version="1.0" encoding="utf-8"?><svg viewBox="0 0 105 100" xmlns="http://www.w3.org/2000/svg" xmlns:xlink="http://www.w3.org/1999/xlink"><style>:root>svg{display:none}:root>svg:target{display:block}</style><svg fill="none" viewBox="0 0 12 10" id="arrow_right" xmlns="http://www.w3.org/2000/svg"><path d="M11.167 4.817h-10M7.133.801l4.034 4.016-4.034 4.017" stroke="#fff" stroke-width="1.5" stroke-linecap="round" stroke-linejoin="round"/></svg><svg fill="none" viewBox="0 0 11 11" id="geo" xmlns="http://www.w3.org/2000/svg"><path d="M1.283 4.234L8.57.764c1.063-.506 2.171.603 1.666 1.667l-3.47 7.287c-.475.995-1.912.934-2.3-.1l-.641-1.711a1.25 1.25 0 00-.731-.731L1.38 6.534C.35 6.146.287 4.709 1.283 4.234z" stroke="#222" stroke-linecap="round" stroke-linejoin="round"/></svg><svg fill="none" viewBox="0 0 14 16" id="halfstar" xmlns="http://www.w3.org/2000/svg"><path d="M12.317 9.38v.43l.95 4.12a1.125 1.125 0 01-1.676 1.22l-3.594-2.18-3.586 2.18a1.126 1.126 0 01-1.676-1.22l.949-4.116L.512 7.042a1.125 1.125 0 01.64-1.973l4.181-.362L6.965.815a1.122 1.122 0 012.07 0l1.637 3.892L11.5 5c-.174-.138.22.019 0 0-.068-.21.174.138 0 0 .068.21.877 4.167.817 4.38.168-.145-.06.213 0 0z" fill="#fff"/></svg><svg fill="none" viewBox="0 0 105 100" id="logo" xmlns="http://www.w3.org/2000/svg"><g clip-path="url(#dclip0_2197_408)" fill-rule="evenodd" clip-rule="evenodd" fill="#fff"><path d="M73.114 37.397c0-.823-.148-1.496-.519-2.02-.37-.523-.815-.897-1.334-1.121-.52-.225-1.187-.374-1.854-.449-.668-.075-1.335-.15-2.002-.15v-1.121h15.2v1.121c-.666 0-1.334.075-2.001.15-.668.075-1.335.224-1.854.449-.52.224-1.038.598-1.335 1.122-.37.523-.519 1.196-.519 2.02v29.02c0 .897.148 1.57.52 2.019.37.523.815.823 1.334 1.122.519.224 1.186.374 1.854.448.667.075 1.335.15 2.002.15v1.122H49.979c-2.447-.075-4.672-.449-7.119-2.02-1.26-.822-2.299-1.72-3.114-2.842-.816-1.122-1.558-2.243-2.077-3.515-.519-1.272-.963-2.543-1.26-3.815-.148-.747-.37-1.495-.52-2.243l-1.111 2.169-3.856 7.629c-.223.523-.371.972-.371 1.42 0 .898.37 1.422 1.112 1.721.742.3 1.483.374 2.299.374v1.122H22.394v-1.122c1.854 0 3.337-.3 4.45-.972 1.037-.673 2.001-1.72 2.743-3.216l5.858-11.593c-.742-3.291-2.595-6.283-5.932-8.377l5.635-2.918c1.26 1.048 2.447 3.815 2.892 5.31.074.15.148.375.148.525l4.969-10.023c-.964-1.122-2.002-1.945-2.966-2.618-.964-.673-2.077-1.197-3.189-1.57l6.822-3.516 19.132 34.93c.222.448.519.897.963 1.42.371.524.816.898 1.335 1.272 1.854 1.42 3.856 1.645 6.007.673.519-.224 1.038-.598 1.334-1.122.371-.524.52-1.197.52-2.02V37.398zM58.506 66.941c0-.449-.074-.748-.222-1.047l-3.782-6.956-1.186-2.244-9.121-16.829-5.562 11.22c.075.299.075.523.149.822.296 1.496.593 2.992 1.038 4.638.445 1.645.964 3.29 1.557 4.936a15.158 15.158 0 002.521 4.413 12.838 12.838 0 003.93 3.216c1.558.823 3.485 1.122 5.71 1.047 2.15-.075 4.968-.673 4.968-3.216zM74.227 30.815c-.964-1.57-2.373-2.992-4.227-4.188l5.636-2.917c1.26 1.047 2.447 3.814 2.892 5.31l-4.301 1.795zM7.638 44.801l-.371 2.693L0 46.596l.37-2.692c.15-.973.594-1.796 1.41-2.394.815-.598 1.705-.823 2.743-.673 1.038.15 1.854.598 2.447 1.346.594.748.816 1.646.668 2.618zm-6.23.673l4.895.599.222-1.422c.075-.673-.074-1.271-.444-1.72-.371-.448-.964-.748-1.632-.822a3.084 3.084 0 00-1.854.373c-.519.374-.815.823-.89 1.496l-.296 1.496zm7.787-8.003l-.37 1.197-5.266-1.421.223-.748H4.82c-.148-.15-.223-.224-.297-.374l-.222-.449c-.074-.15-.074-.374-.074-.673 0-.224.074-.523.222-.823l1.26.524c-.222.598-.222 1.047-.073 1.42.222.3.593.524 1.038.674l2.52.673zm1.26-3.665a1.02 1.02 0 01-.667 0 .671.671 0 01-.445-.448c-.074-.225-.074-.45 0-.599a.671.671 0 01.445-.449 1.02 1.02 0 01.668 0c.222.075.37.225.444.45.075.224.075.448 0 .598-.074.299-.222.373-.444.448zm3.337-6.133l-.89 1.197-4.078-6.582.742-.972 7.86 1.495-.89 1.197-1.631-.299-2.002 2.618.89 1.346zm-3.114-4.861l1.557 2.468 1.41-1.945-2.967-.524zm9.343-2.618l-.964.897-5.042-5.086.964-.822 6.155 1.047-3.486-3.516.964-.897 5.043 5.086-.964.823-6.155-1.048 3.485 3.516zm7.415-5.909l-2.743-4.039 5.858 2.094 1.112-.673-4.004-5.909-1.112.674 2.743 4.038-5.858-2.094-1.112.673 4.004 5.91 1.112-.674zm7.935-4.039l-1.483.449.89-7.63 1.186-.373 5.339 5.684-1.483.449-1.112-1.197-3.263.973-.074 1.645zm.593-5.684l-.37 2.842 2.372-.748-2.002-2.094zm11.197 2.842l-1.335.15-.964-6.956 1.335-.15.964 6.956zm9.27-1.122c-.742.673-1.632 1.047-2.67.972-1.039 0-1.928-.374-2.67-1.122-.741-.748-1.038-1.57-1.038-2.617 0-1.048.37-1.87 1.112-2.543.742-.674 1.632-1.048 2.67-.973 1.038 0 1.928.374 2.67 1.122.74.748 1.037 1.57 1.037 2.618.075.972-.37 1.795-1.112 2.543zm-2.67-.224c.741 0 1.334-.225 1.78-.674.444-.448.667-1.047.667-1.72s-.223-1.271-.668-1.72c-.445-.524-1.038-.748-1.705-.748-.742 0-1.26.224-1.78.673-.445.449-.667 1.047-.667 1.72 0 .674.222 1.272.667 1.72.445.524 1.038.749 1.706.749zm7.934 1.944l-1.335-.299L61.992.897l3.114.673c.297.075.593.15.816.3.222.149.519.298.667.523.222.224.37.448.445.748.074.299.074.598 0 .972-.148.598-.445 1.047-.89 1.271-.445.225-.964.3-1.631.225l1.557 3.366-1.557-.3L63.03 5.31l-.668-.15-.667 2.842zm1.335-5.684l-.445 1.72 1.631.374c.816.15 1.26 0 1.409-.598.074-.3 0-.524-.148-.673-.149-.225-.445-.3-.89-.45l-1.557-.373zm8.156 8.601l-2.595-1.122 3.04-6.357 2.596 1.122c.964.448 1.631 1.047 2.002 1.944.37.898.296 1.795-.148 2.693-.445.898-1.113 1.57-2.077 1.87-.89.374-1.854.299-2.818-.15zm1.187-5.909l-2.076 4.264 1.409.598c.667.3 1.26.3 1.853.075.594-.224 1.038-.673 1.335-1.272.297-.598.37-1.196.148-1.795-.222-.598-.593-.972-1.26-1.271l-1.41-.599zm5.042 9.275l1.41-.823 2.817 1.87-.297 1.57 1.26.823 1.558-7.554-1.038-.673-6.896 3.964 1.186.823zm5.117-2.992l-.593 2.842-2.003-1.346 2.596-1.496zm2.595 9.125l-.89-.972 5.488-4.637.89.897-1.261 5.834 3.782-3.216.89.972-5.488 4.637-.89-.897 1.26-5.834-3.78 3.216zm6.896 8.9l2.373-1.27 5.34.149-.742-1.347-3.708-.074 1.78-3.067-.668-1.271-2.595 4.487-2.373 1.272.593 1.122zm2.225 4.264l-.52-1.346 8.009.748.371 1.121-5.932 5.161-.52-1.346 1.261-1.047-1.112-3.067-1.557-.224zm5.932.449l-3.04-.3.816 2.244 2.224-1.944zm-3.114 8.75l-.149-1.27 7.267-.973.149 1.197-4.524 4.188 5.043-.673.148 1.271-7.267.973-.148-1.197 4.523-4.188-5.042.673zM4.004 66.642a1.5 1.5 0 01-.074-.973c.074-.299.223-.598.445-.822.222-.225.519-.45.89-.524.37-.15.667-.15 1.038-.075.37.075.593.225.89.45.222.224.445.523.593.822.074.299.148.598.074.823-.074.299-.148.523-.37.748l-.371-.3a.853.853 0 00.222-.598c0-.224 0-.374-.074-.598a1.162 1.162 0 00-.445-.599c-.222-.15-.445-.299-.667-.299-.223-.075-.52 0-.816.075-.297.075-.52.224-.667.374-.075.224-.223.449-.223.673-.074.224 0 .449.074.748.074.224.149.374.297.524.148.15.296.224.519.299l-.148.448c-.297-.074-.52-.224-.742-.373a8.181 8.181 0 01-.445-.823zm6.303 5.46L9.64 70.83l-2.966 1.496-.223-.449 2.966-1.496-.667-1.196.37-.225 1.558 2.917-.37.225zm3.856 5.01l-4.597.674c-.371.075-.668.075-.964-.075a1.154 1.154 0 01-.594-.448l-.222-.45a.48.48 0 010-.448h.445a.722.722 0 00.148.673c.074.15.223.225.371.3.148.074.37.074.593 0l.371-.075 2.299-3.366.296.448-1.928 2.843 3.486-.524.296.449zm1.78 6.957l-1.038.822-.297-.373.667-.599-2.224-2.468-.668.598-.296-.374 1.038-.822.148.15c.149.149.445.149.742 0 .37-.15.741-.45 1.26-.823l.964-.748 1.854 2.019-2.521 2.094.37.524zm-.445-3.44c-.445.298-.816.598-1.112.747-.297.15-.594.225-.816.225l1.557 1.72 2.225-1.795-1.187-1.346-.667.448zm5.339 3.44l.37.299-2.002 2.169 3.93-.598.371.299-2.52 2.767-.372-.299 2.002-2.169-3.93.598-.37-.299 2.52-2.767zm8.23 5.535l-1.927 3.14-.445-.223.593-1.048-1.038-.598-.148-.075-1.41.599-.518-.3 1.483-.673c-.223-.224-.371-.448-.371-.673-.074-.224 0-.523.148-.748.223-.374.52-.523.89-.598.37-.075.742.075 1.187.3l1.557.897zm-3.04-.15c-.296.449-.074.898.52 1.197l1.038.523.89-1.42-.964-.524c-.742-.374-1.187-.3-1.483.224zm8.157 6.582c-.37-.15-.593-.3-.815-.599-.223-.224-.371-.523-.371-.822-.074-.3 0-.673.148-.972.148-.3.37-.599.593-.823.297-.225.594-.3.89-.374.371-.075.668 0 1.038.15.371.149.594.298.816.598.223.224.37.523.37.822.075.3 0 .674-.148.973-.148.299-.37.598-.593.822-.296.225-.593.3-.89.374-.37 0-.741 0-1.038-.15zm.149-.449c.222.075.519.15.741.075.223 0 .445-.15.668-.3.222-.149.37-.373.444-.598.075-.224.149-.523.149-.748 0-.224-.149-.448-.297-.673-.148-.15-.37-.299-.593-.449-.223-.074-.52-.15-.742-.074-.222 0-.445.15-.667.299-.223.15-.37.374-.445.598-.074.225-.148.524-.148.748 0 .225.148.449.296.673.149.225.371.374.594.45zm7.637.673c.223.15.445.3.52.449.073.15.148.374.073.598-.074.225-.148.374-.37.524a1.19 1.19 0 01-.668.224c-.296 0-.593 0-.89-.074-.296-.075-.518-.15-.741-.3-.222-.15-.445-.299-.593-.448l.222-.3c.149.15.297.3.52.45.222.149.444.224.667.224.37.074.667.074.89 0a.672.672 0 00.444-.45c.075-.224 0-.373-.148-.523-.148-.15-.37-.224-.667-.299l-.668-.15.075-.374.593.15c.296.075.519.075.741 0 .223-.075.297-.15.371-.374.074-.224 0-.374-.148-.523-.148-.15-.371-.225-.742-.3a3.562 3.562 0 00-1.26 0l-.075-.374c.52-.15.965-.15 1.483 0 .297.075.52.15.742.3.222.15.37.299.445.448.074.15.148.374.074.524-.074.15-.148.3-.297.449-.148.075-.37.15-.593.15zm8.083 2.394l-.074 1.271h-.52l.075-.897-3.411-.225-.074.898h-.52l.075-1.272h.222c.223 0 .445-.15.593-.523.149-.374.223-.823.297-1.421l.148-1.197 2.818.224-.222 3.216.593-.074zm-2.818-2.17c-.074.524-.148.973-.222 1.272-.075.3-.223.524-.445.673l2.373.15.222-2.767-1.854-.15-.074.823zm8.231 2.693c-.37 0-.667 0-1.038-.15-.297-.149-.593-.373-.742-.598-.222-.299-.296-.598-.296-.972s0-.673.148-.972c.148-.3.37-.524.668-.674.296-.15.593-.299.963-.299.371 0 .668 0 1.039.15.296.15.519.374.741.598.223.3.297.599.297.973s0 .673-.149.972c-.148.3-.37.523-.667.673-.297.15-.593.225-.964.3zm-.074-.449c.296 0 .519-.074.741-.224.223-.15.371-.3.445-.523.075-.225.149-.45.149-.748 0-.3-.074-.524-.223-.748-.148-.225-.296-.374-.519-.45-.222-.074-.445-.149-.741-.149-.297 0-.52.075-.742.225-.222.15-.37.299-.445.523-.074.225-.148.449-.148.748 0 .3.074.524.222.748.149.225.297.374.52.449.222.075.518.15.74.15zm6.97-4.263a2.43 2.43 0 011.038 0c.297.075.594.225.816.524.223.224.37.523.445.897.074.374.074.674 0 .973-.074.299-.297.598-.52.748-.222.224-.518.374-.889.448a1.795 1.795 0 01-.89 0c-.296-.074-.519-.224-.741-.374l.445 1.945-.52.075-1.186-4.862.445-.075.148.674c.075-.3.223-.524.445-.674.371-.074.668-.224.964-.299zm.742 3.216c.296-.074.519-.15.667-.299a1.63 1.63 0 00.37-.598 1.284 1.284 0 000-.748c-.073-.3-.147-.524-.37-.673-.148-.15-.37-.3-.593-.374a1.253 1.253 0 00-.742 0c-.296.075-.519.15-.667.299-.148.15-.297.374-.37.598a1.285 1.285 0 000 .748c.073.3.148.524.37.673.148.15.37.3.593.374.223.075.445.075.742 0zm7.267-1.495c-.371.15-.668.15-1.038.15-.371-.076-.668-.15-.89-.375-.297-.224-.445-.449-.593-.823-.149-.299-.149-.673-.149-.972.074-.3.149-.598.371-.823.222-.224.52-.449.816-.598.37-.15.667-.15 1.038-.15.37.075.667.15.89.374.296.225.445.45.593.823.148.3.148.673.148.972-.074.3-.148.599-.37.823-.223.224-.52.449-.816.599zm-.149-.45c.223-.074.445-.224.594-.448.148-.15.222-.374.296-.673 0-.225 0-.524-.148-.748a1.162 1.162 0 00-.445-.599c-.222-.15-.445-.224-.667-.299-.223 0-.52 0-.742.075a1.154 1.154 0 00-.593.449c-.148.15-.222.374-.297.673 0 .224 0 .524.149.748.074.224.222.449.445.598.222.15.444.225.667.3.222.074.445 0 .741-.075zm6.674-4.562c.52-.15.89 0 1.112.374.149.3.223.524.075.823-.149.3-.371.523-.816.748l-1.483.823-1.928-3.142 1.483-.822c.37-.225.742-.3 1.038-.3.297 0 .52.15.668.45.074.149.148.373.148.523-.074.15-.148.374-.297.523zm-1.705.748l.964-.523c.222-.15.445-.3.519-.45a.464.464 0 00-.075-.523c-.074-.15-.222-.299-.444-.299-.223 0-.445.075-.668.225l-.964.523.668 1.047zm1.853.898c.297-.15.445-.3.594-.449a.644.644 0 000-.524c-.149-.224-.297-.299-.445-.299a1.4 1.4 0 00-.668.225l-1.112.598.668 1.122.963-.673zm5.043-7.106l2.373 2.843-.371.299-2.076-2.543-1.41 1.047.52.748c.445.598.741 1.122.89 1.57.148.374.074.748-.223.973-.074.075-.222.15-.296.15l-.223-.375c.074 0 .148-.075.148-.075.149-.15.223-.299.149-.448 0-.225-.148-.374-.297-.599a20.74 20.74 0 00-.593-.822l-.816-1.047 2.225-1.72zm6.822-3.29l-2.299 2.094c.297.224.593.373.964.373.37 0 .742-.149 1.038-.448.149-.15.297-.3.371-.524.074-.224.148-.374.148-.598l.445.075c0 .224 0 .523-.148.748-.074.224-.297.448-.52.673-.296.224-.592.449-.963.523-.37.075-.667.075-.964 0-.297-.075-.593-.299-.89-.523-.222-.225-.445-.524-.519-.823a1.837 1.837 0 010-.897c.074-.3.297-.599.52-.823.222-.225.518-.374.889-.449.297-.075.667-.075.964.075.297.075.593.299.89.523h.074zm-2.521.074c-.297.224-.445.524-.445.823 0 .299.074.598.296.897l2.002-1.795c-.296-.224-.593-.374-.963-.374a2.497 2.497 0 00-.89.45zm3.188-3.814l.297-.374 1.409.897 1.409-1.87-1.41-.897.297-.374 3.115 2.094-.297.374-1.409-.898-1.409 1.87 1.41.898-.297.374-3.115-2.094zm4.005-5.685l.222-.448 2.67 1.346-1.558-3.516.223-.374 3.41 1.646-.222.449-2.67-1.347 1.558 3.516-.222.374-3.412-1.646zm4.078-8.9l3.633 1.196-.148.45-1.186-.375-.371 1.047-.074.15.889 1.197-.148.523-.964-1.271c-.148.224-.37.374-.593.523-.222.075-.52.075-.816 0-.37-.15-.667-.374-.815-.673-.149-.3-.075-.748.074-1.197l.519-1.57zm.445 2.842c.519.15.89-.075 1.186-.748l.371-1.047-1.631-.524-.371 1.047c-.297.674-.148 1.122.445 1.272zM3.189 54.525c.741 0 1.334.598 1.334 1.272 0 .673-.593 1.271-1.334 1.271-.742 0-1.335-.598-1.335-1.271 0-.748.593-1.272 1.335-1.272zM100.551 54.525c.741 0 1.335.598 1.335 1.272 0 .673-.594 1.271-1.335 1.271-.742 0-1.335-.598-1.335-1.271 0-.748.593-1.272 1.335-1.272z"/></g><defs><clipPath id="dclip0_2197_408"><path fill="#fff" d="M0 0h105v100H0z"/></clipPath></defs></svg><svg fill="none" viewBox="0 0 20 20" id="percent" xmlns="http://www.w3.org/2000/svg"><g clip-path="url(#eclip0_2197_434)"><path fill-rule="evenodd" clip-rule="evenodd" d="M17.32 17.32l-2.92.3L12.68 20 10 18.8 7.32 20 5.6 17.62l-2.92-.3-.3-2.92L0 12.68 1.2 10 0 7.32 2.38 5.6l.3-2.92 2.92-.3L7.32 0 10 1.2 12.68 0l1.72 2.38 2.92.3.3 2.92L20 7.32 18.8 10l1.2 2.68-2.38 1.72-.3 2.92z" fill="#B70B0B"/><path d="M7.86 14l5.08-8.4h-1.39L6.46 14h1.4zM6.82 5.43c-1.37 0-2.03.99-2.03 2.28 0 1.3.66 2.26 2.03 2.26 1.38 0 2.04-.96 2.04-2.26 0-1.29-.66-2.28-2.04-2.28zm0 3.41c-.54 0-.74-.47-.74-1.13 0-.67.2-1.15.74-1.15s.76.48.76 1.15c0 .66-.22 1.13-.76 1.13zm5.75.78c-1.37 0-2.03.98-2.03 2.28 0 1.3.66 2.26 2.03 2.26 1.38 0 2.04-.96 2.04-2.26 0-1.3-.66-2.28-2.04-2.28zm0 3.41c-.54 0-.75-.47-.75-1.13 0-.67.21-1.15.75-1.15s.75.48.75 1.15c0 .66-.21 1.13-.75 1.13z" fill="#fff"/><path d="M7.86 14v.3h.17l.09-.14-.26-.16zm5.08-8.4l.26.16.27-.46h-.53v.3zm-1.39 0v-.3h-.17l-.09.14.26.16zM6.46 14l-.26-.16-.27.46h.53V14zm1.66.16l5.08-8.4-.52-.32-5.07 8.4.51.32zm4.82-8.86h-1.39v.6h1.39v-.6zm-1.65.14l-5.09 8.4.52.32 5.09-8.4-.52-.32zM6.46 14.3h1.4v-.6h-1.4v.6zm.36-9.17c-.76 0-1.36.28-1.76.77-.39.47-.57 1.12-.57 1.81h.6c0-.6.16-1.09.44-1.43.27-.33.69-.55 1.29-.55v-.6zM4.49 7.71c0 .7.18 1.34.57 1.81.4.48 1 .75 1.76.75v-.6c-.61 0-1.02-.21-1.3-.54-.27-.33-.43-.82-.43-1.42h-.6zm2.33 2.56c.77 0 1.37-.27 1.77-.75.39-.47.57-1.11.57-1.81h-.6c0 .6-.15 1.09-.43 1.42-.27.33-.69.54-1.31.54v.6zm2.34-2.56c0-.69-.18-1.34-.57-1.82-.4-.48-1-.76-1.77-.76v.6c.61 0 1.03.22 1.31.55.28.34.43.83.43 1.43h.6zm-2.34.83c-.16 0-.25-.06-.32-.17-.07-.13-.12-.35-.12-.66h-.6c0 .35.05.7.21.97.17.29.45.46.83.46v-.6zm-.44-.83c0-.31.05-.54.13-.68.06-.11.15-.17.31-.17v-.6c-.38 0-.66.18-.83.47-.16.27-.21.62-.21.98h.6zm.44-.85c.16 0 .25.06.32.18.09.13.14.36.14.67h.6c0-.36-.06-.71-.22-.98a.946.946 0 00-.84-.47v.6zm.46.85c0 .31-.05.53-.14.66-.06.11-.15.17-.32.17v.6c.38 0 .66-.17.84-.46.16-.27.22-.61.22-.97h-.6zm5.29 1.61c-.76 0-1.36.28-1.76.76-.39.48-.57 1.13-.57 1.82h.6c0-.6.15-1.1.43-1.44.28-.33.69-.54 1.3-.54v-.6zm-2.33 2.58c0 .69.18 1.33.57 1.81.4.48 1 .75 1.76.75v-.6c-.61 0-1.03-.21-1.3-.54-.28-.33-.43-.82-.43-1.42h-.6zm2.33 2.56c.76 0 1.36-.27 1.77-.75.39-.47.57-1.12.57-1.81h-.6c0 .6-.15 1.09-.43 1.42-.28.33-.7.54-1.31.54v.6zm2.34-2.56c0-.69-.18-1.34-.57-1.82-.4-.48-1-.76-1.77-.76v.6c.61 0 1.03.21 1.31.55.28.33.43.83.43 1.43h.6zm-2.34.83c-.17 0-.25-.06-.32-.17-.08-.13-.13-.35-.13-.66h-.6c0 .35.06.7.22.96.17.29.45.47.83.47v-.6zm-.45-.83c0-.31.05-.54.13-.68.07-.11.16-.17.32-.17v-.6c-.38 0-.66.18-.84.47-.15.27-.21.62-.21.98h.6zm.45-.85c.16 0 .25.06.32.18.08.13.13.36.13.67h.6c0-.36-.05-.71-.21-.98a.946.946 0 00-.84-.47v.6zm.45.85c0 .31-.05.52-.13.66-.06.11-.16.17-.32.17v.6c.37 0 .66-.17.84-.46.16-.27.21-.62.21-.97h-.6z" fill="#fff"/></g><defs><clipPath id="eclip0_2197_434"><path fill="#fff" d="M0 0h20v20H0z"/></clipPath></defs></svg><svg fill="none" viewBox="0 0 13 13" id="phone" xmlns="http://www.w3.org/2000/svg"><path d="M12.03 8.285L9.27 7.048l-.008-.004a.937.937 0 00-.933.115L6.903 8.375c-.904-.439-1.837-1.365-2.276-2.256L5.845 4.67a.938.938 0 00.11-.928v-.007L4.716.971a.938.938 0 00-.974-.558A3.296 3.296 0 00.875 3.688c0 4.652 3.785 8.437 8.438 8.437a3.297 3.297 0 003.274-2.866.937.937 0 00-.557-.974zm-2.717 2.902a7.508 7.508 0 01-7.5-7.5 2.355 2.355 0 012.043-2.343v.007l1.23 2.754-1.211 1.45a.938.938 0 00-.092.965c.53 1.085 1.625 2.17 2.722 2.701a.938.938 0 00.966-.1l1.425-1.215L11.65 9.14h.006a2.357 2.357 0 01-2.343 2.047z" fill="#222"/></svg><svg fill="none" viewBox="0 0 15 34" id="slider_arrow_left" xmlns="http://www.w3.org/2000/svg"><path d="M14.326 34.203L1.322 17.579 14.326.956" stroke="#222" stroke-width="1.5"/></svg><svg fill="none" viewBox="0 0 15 34" id="slider_arrow_right" xmlns="http://www.w3.org/2000/svg"><g clip-path="url(#hclip0_2197_178)"><path d="M.674 34.203l13.004-16.624L.674.956" stroke="#222" stroke-width="1.5"/></g><defs><clipPath id="hclip0_2197_178"><path fill="#fff" transform="matrix(-1 0 0 1 14.4 .2)" d="M0 0h14.4v33.6H0z"/></clipPath></defs></svg><svg fill="none" viewBox="0 0 16 16" id="star" xmlns="http://www.w3.org/2000/svg"><path d="M15.488 7.042l-3.17 2.768.95 4.12a1.125 1.125 0 01-1.677 1.22l-3.594-2.18-3.586 2.18a1.126 1.126 0 01-1.676-1.22l.949-4.116L.512 7.042a1.125 1.125 0 01.64-1.973l4.181-.362L6.965.815a1.121 1.121 0 012.07 0l1.637 3.892 4.18.362a1.125 1.125 0 01.64 1.973h-.004z" fill="#fff"/></svg><svg fill="none" viewBox="0 0 20 20" id="tg" xmlns="http://www.w3.org/2000/svg"><rect x=".5" y=".5" width="19" height="19" rx="3.5" stroke="#101010"/><path d="M8.16 11.489l3.974 3.043c.412.277.765.123.883-.43l1.619-7.932c.147-.677-.265-.984-.706-.769L4.48 9.213c-.619.246-.619.646-.118.8l.6.196a4 4 0 003.458-.471L12.4 7.092c.265-.154.5-.092.323.123" fill="#101010"/></svg><svg fill="none" viewBox="0 0 20 20" id="vk" xmlns="http://www.w3.org/2000/svg"><rect x=".5" y=".5" width="19" height="19" rx="3.5" stroke="#101010"/><path d="M15.305 7.13c.02-.068.03-.13.028-.186-.007-.16-.117-.277-.378-.277h-1.164a.506.506 0 00-.478.294c-.021.04-.04.082-.06.123-.146.29-.796 1.55-1.531 2.416-.271.285-.41.278-.556.278-.079 0-.277-.095-.277-.356V7.117c0-.308-.077-.45-.325-.45H8.497c-.18 0-.275.142-.275.285 0 .296.4.367.445 1.198v1.61c0 .391-.068.462-.215.462-.396 0-1.174-1.333-1.696-3.08-.112-.345-.225-.475-.519-.475H5.062c-.339 0-.395.166-.395.344 0 .32.266 2.053 1.722 4.045 1.056 1.444 2.446 2.277 3.677 2.277.746 0 .822-.19.822-.486v-1.32c0-.357.082-.416.32-.416.169 0 .514.111 1.18.889.77.897.91 1.333 1.35 1.333h1.164c.27 0 .425-.113.431-.333a.688.688 0 00-.025-.188c-.086-.256-.481-.882-.975-1.479-.273-.33-.543-.657-.667-.835-.083-.116-.114-.198-.11-.276.006-.13.2-.405.274-.513.392-.575 1.36-2.016 1.475-2.58z" fill="#101010"/></svg></svg>