<svg width="106" height="100" viewBox="0 0 106 100" fill="none" xmlns="http://www.w3.org/2000/svg">
<g clip-path="url(#clip0_2197_335)">
<path fill-rule="evenodd" clip-rule="evenodd" d="M73.7472 37.3974C73.7472 36.5746 73.5976 35.9015 73.2236 35.3779C72.8497 34.8544 72.4009 34.4804 71.8773 34.256C71.3538 34.0316 70.6806 33.882 70.0075 33.8073C69.3343 33.7325 68.6612 33.6577 67.988 33.6577V32.5358H83.3209V33.6577C82.6477 33.6577 81.9746 33.7325 81.3014 33.8073C80.6283 33.882 79.9551 34.0316 79.4316 34.256C78.908 34.4804 78.3844 34.8544 78.0853 35.3779C77.7113 35.9015 77.5617 36.5746 77.5617 37.3974V66.4176C77.5617 67.3151 77.7113 67.9883 78.0853 68.437C78.4592 68.9606 78.908 69.2598 79.4316 69.5589C79.9551 69.7833 80.6283 69.9329 81.3014 70.0077C81.9746 70.0825 82.6477 70.1573 83.3209 70.1573V71.2792H69.4091C64.2483 71.2792 59.0875 71.2792 53.9267 71.2792H50.4114C47.9432 71.2044 45.6993 70.8304 43.2311 69.2598C41.9596 68.437 40.9125 67.5395 40.0898 66.4176C39.267 65.2957 38.5191 64.1737 37.9955 62.9022C37.472 61.6307 37.0232 60.3592 36.724 59.0877C36.5744 58.3398 36.35 57.5918 36.2004 56.8439L35.0785 59.0129L31.1892 66.642C30.9648 67.1655 30.8153 67.6143 30.8153 68.063C30.8153 68.9606 31.1892 69.4841 31.9372 69.7833C32.6851 70.0825 33.4331 70.1573 34.2558 70.1573V71.2792H22.5879V70.1573C24.4577 70.1573 25.9536 69.8581 27.0755 69.185C28.1227 68.5118 29.095 67.4647 29.8429 65.9688L35.7517 54.3757C35.0037 51.0847 33.1339 48.093 29.7681 45.9987L35.4525 43.0817C36.724 44.1289 37.9207 46.8963 38.3695 48.3921C38.4443 48.5417 38.5191 48.7661 38.5191 48.9157L43.5303 38.8933C42.558 37.7714 41.5108 36.9486 40.5385 36.2755C39.5662 35.6023 38.4443 35.0788 37.3224 34.7048L44.2034 31.1895L63.5004 66.1184C63.7248 66.5672 64.0239 67.0159 64.4727 67.5395C64.8467 68.0631 65.2954 68.437 65.819 68.811C67.6889 70.2321 69.7083 70.4565 71.8773 69.4841C72.4009 69.2598 72.9245 68.8858 73.2236 68.3622C73.5976 67.8387 73.7472 67.1655 73.7472 66.3428V37.3974ZM59.0127 66.9411C59.0127 66.4924 58.9379 66.1932 58.7883 65.894L54.9738 58.9381L53.7771 56.6943L44.5774 39.8656L38.9678 51.0847C39.0426 51.3839 39.0426 51.6083 39.1174 51.9075C39.4166 53.4034 39.7158 54.8993 40.1645 56.5447C40.6133 58.1902 41.1369 59.8357 41.7352 61.4811C42.3336 63.1266 43.2311 64.6225 44.2782 65.894C45.3254 67.1655 46.6717 68.2874 48.2423 69.1102C49.813 69.9329 51.7577 70.2321 54.0015 70.1573C56.1705 70.0825 59.0127 69.4841 59.0127 66.9411Z" fill="#9D7E6D"/>
<path fill-rule="evenodd" clip-rule="evenodd" d="M74.8691 30.8154C73.8968 29.2447 72.4757 27.8236 70.6058 26.6269L76.2902 23.71C77.5617 24.7571 78.7584 27.5245 79.2072 29.0204L74.8691 30.8154Z" fill="#9D7E6D"/>
<path fill-rule="evenodd" clip-rule="evenodd" d="M7.70381 44.802L7.32984 47.4946L0 46.597L0.373972 43.9044C0.52356 42.9321 0.972326 42.1094 1.79506 41.511C2.6178 40.9127 3.51533 40.6883 4.56245 40.8379C5.60957 40.9874 6.43231 41.4362 7.03067 42.1842C7.62902 42.9321 7.8534 43.8296 7.70381 44.802ZM1.42109 45.4751L6.35752 46.0735L6.5819 44.6524C6.65669 43.9792 6.50711 43.3809 6.13313 42.9321C5.75916 42.4833 5.16081 42.1842 4.48766 42.1094C3.81451 42.0346 3.14136 42.1842 2.6178 42.4833C2.09424 42.8573 1.79506 43.3061 1.72027 43.9792L1.42109 45.4751ZM9.2745 37.4721L8.90052 38.6688L3.59013 37.2477L3.81451 36.4998H4.86163C4.71204 36.3502 4.63725 36.2754 4.56245 36.1258C4.48766 35.9762 4.41286 35.8266 4.33807 35.6771C4.26328 35.5275 4.26328 35.3031 4.26328 35.0039C4.26328 34.7795 4.33807 34.4803 4.48766 34.1812L5.75916 34.7047C5.53478 35.3031 5.53478 35.7518 5.68437 36.1258C5.90875 36.425 6.28272 36.6494 6.73149 36.799L9.2745 37.4721ZM10.546 33.8072C10.3216 33.882 10.0972 33.882 9.87285 33.8072C9.64847 33.7324 9.49888 33.5828 9.42408 33.3584C9.34929 33.134 9.34929 32.9097 9.42408 32.7601C9.49888 32.5357 9.64847 32.3861 9.87285 32.3113C10.0972 32.2365 10.3216 32.2365 10.546 32.3113C10.7704 32.3861 10.92 32.5357 10.9948 32.7601C11.0696 32.9845 11.0696 33.2088 10.9948 33.3584C10.92 33.6576 10.7704 33.7324 10.546 33.8072ZM13.9117 27.6741L13.0142 28.8708L8.90052 22.2889L9.64847 21.3165L17.5767 22.8124L16.6791 24.0091L15.0337 23.71L13.0142 26.3278L13.9117 27.6741ZM10.7704 22.8124L12.3411 25.2806L13.7622 23.336L10.7704 22.8124ZM20.1945 20.1946L19.2221 21.0922L14.1361 16.0061L15.1085 15.1834L21.3164 16.2305L17.801 12.7152L18.7734 11.8177L23.8594 16.9037L22.8871 17.7264L16.6791 16.6793L20.1945 20.1946ZM27.6739 14.2859L24.9065 10.247L30.8153 12.3412L31.9372 11.6681L27.8983 5.75932L26.7764 6.43247L29.5438 10.4714L23.635 8.37712L22.5131 9.05027L26.552 14.959L27.6739 14.2859ZM35.6769 10.247L34.181 10.6957L35.0785 3.06673L36.2752 2.69276L41.6604 8.37712L40.1645 8.82589L39.0426 7.62918L35.7517 8.60151L35.6769 10.247ZM36.2752 4.56261L35.9013 7.4048L38.2947 6.65685L36.2752 4.56261ZM47.5692 7.4048L46.2229 7.55439L45.2506 0.598515L46.5969 0.448926L47.5692 7.4048ZM56.9185 6.28288C56.1705 6.95603 55.273 7.33 54.2259 7.25521C53.1788 7.25521 52.2812 6.88124 51.5333 6.13329C50.7853 5.38535 50.4862 4.56261 50.4862 3.51549C50.4862 2.46837 50.8601 1.64564 51.6081 0.972486C52.356 0.299338 53.2536 -0.0746339 54.3007 0.000160369C55.3478 0.000160369 56.2453 0.374132 56.9933 1.12208C57.7412 1.87002 58.0404 2.69276 58.0404 3.73988C58.1152 4.7122 57.6664 5.53494 56.9185 6.28288ZM54.2259 6.0585C54.9738 6.0585 55.5722 5.83412 56.0209 5.38535C56.4697 4.93658 56.6941 4.33823 56.6941 3.66508C56.6941 2.99193 56.4697 2.39358 56.0209 1.94481C55.5722 1.42125 54.9738 1.19687 54.3007 1.19687C53.5527 1.19687 53.0292 1.42125 52.5056 1.87002C52.0568 2.31878 51.8325 2.91714 51.8325 3.59029C51.8325 4.26344 52.0568 4.86179 52.5056 5.31056C52.9544 5.83412 53.5527 6.0585 54.2259 6.0585ZM62.2289 8.00315L60.8826 7.70398L62.528 0.897692L65.6694 1.57084C65.9686 1.64564 66.2678 1.72043 66.4921 1.87002C66.7165 2.01961 67.0157 2.1692 67.1653 2.39358C67.3897 2.61796 67.5393 2.84234 67.6141 3.14152C67.6889 3.4407 67.6889 3.73988 67.6141 4.11385C67.4645 4.7122 67.1653 5.16097 66.7165 5.38535C66.2678 5.60973 65.7442 5.68453 65.0711 5.60973L66.6417 8.97548L65.0711 8.6763L63.5752 5.31056L62.902 5.16097L62.2289 8.00315ZM63.5752 2.31878L63.1264 4.03905L64.7719 4.41302C65.5946 4.56261 66.0434 4.41302 66.193 3.81467C66.2678 3.51549 66.193 3.29111 66.0434 3.14152C65.8938 2.91714 65.5946 2.84234 65.1459 2.69276L63.5752 2.31878ZM71.8025 10.9201L69.1847 9.79822L72.2513 3.4407L74.8691 4.56261C75.8414 5.01138 76.5146 5.60973 76.8886 6.50727C77.2625 7.4048 77.1877 8.30233 76.739 9.19986C76.2902 10.0974 75.6171 10.7705 74.6447 11.0697C73.7472 11.4437 72.7749 11.3689 71.8025 10.9201ZM72.9993 5.01138L70.905 9.27466L72.3261 9.87301C72.9993 10.1722 73.5976 10.1722 74.196 9.9478C74.7943 9.72342 75.2431 9.27466 75.5423 8.6763C75.8414 8.07795 75.9162 7.47959 75.6918 6.88124C75.4675 6.28288 75.0935 5.90891 74.4203 5.60973L72.9993 5.01138ZM78.0853 14.2859L79.5064 13.4631L82.3485 15.333L82.0494 16.9037L83.3209 17.7264L84.8915 10.1722L83.8444 9.49904L76.8886 13.4631L78.0853 14.2859ZM83.2461 11.2941L82.6477 14.1363L80.6283 12.79L83.2461 11.2941ZM85.8639 20.419L84.9663 19.4467L90.5011 14.8094L91.3987 15.707L90.1272 21.5409L93.9417 18.3248L94.8392 19.2971L89.3044 23.9343L88.4069 23.0368L89.6784 17.2029L85.8639 20.419ZM92.8197 29.3195L95.2132 28.048L100.598 28.1976L99.8504 26.8513L96.1107 26.7765L97.9058 23.71L97.2326 22.4385L94.6148 26.9261L92.2214 28.1976L92.8197 29.3195ZM95.0636 33.5828L94.54 32.2365L102.618 32.9845L102.992 34.1064L97.0082 39.2672L96.4847 37.9209L97.7562 36.8738L96.6343 33.8072L95.0636 33.5828ZM101.047 34.0316L97.9806 33.7324L98.8033 35.9762L101.047 34.0316ZM97.9058 42.7825L97.7562 41.511L105.086 40.5387L105.236 41.7354L100.673 45.9239L105.759 45.2507L105.909 46.5222L98.5789 47.4946L98.4293 46.2978L102.992 42.1094L97.9058 42.7825Z" fill="#9D7E6D"/>
<path fill-rule="evenodd" clip-rule="evenodd" d="M4.03889 66.6421C3.88931 66.2682 3.88931 65.969 3.9641 65.6698C4.03889 65.3706 4.18848 65.0714 4.41287 64.8471C4.63725 64.6227 4.93643 64.3983 5.3104 64.3235C5.68437 64.1739 5.98355 64.1739 6.35752 64.2487C6.73149 64.3235 6.95587 64.4731 7.25505 64.6975C7.47943 64.9219 7.70381 65.221 7.8534 65.5202C7.9282 65.8194 8.00299 66.1186 7.9282 66.343C7.8534 66.6421 7.77861 66.8665 7.55423 67.0909L7.18025 66.7917C7.32984 66.6421 7.40464 66.4177 7.40464 66.1934C7.40464 65.969 7.40464 65.8194 7.32984 65.595C7.25505 65.3706 7.10546 65.1462 6.88108 64.9967C6.65669 64.8471 6.43231 64.6975 6.20793 64.6975C5.98355 64.6227 5.68437 64.6975 5.38519 64.7723C5.08601 64.8471 4.86163 64.9967 4.71204 65.1462C4.63725 65.3706 4.48766 65.595 4.48766 65.8194C4.41287 66.0438 4.48766 66.2682 4.56245 66.5673C4.63725 66.7917 4.71204 66.9413 4.86163 67.0909C5.01122 67.2405 5.16081 67.3153 5.38519 67.3901L5.2356 67.8388C4.93643 67.764 4.71204 67.6145 4.48766 67.4649C4.33807 67.2405 4.18848 66.9413 4.03889 66.6421ZM10.3964 72.1021L9.72326 70.8306L6.73149 72.3265L6.50711 71.8777L9.49888 70.3818L8.82573 69.1851L9.1997 68.9608L10.7704 71.8777L10.3964 72.1021ZM14.2857 77.1133L9.64847 77.7865C9.2745 77.8613 8.97532 77.8613 8.67614 77.7117C8.45176 77.6369 8.22738 77.4873 8.07779 77.2629C8.00299 77.1133 7.9282 76.9637 7.8534 76.8142C7.77861 76.6646 7.77861 76.515 7.8534 76.3654H8.30217C8.22738 76.5898 8.30217 76.889 8.45176 77.0385C8.52655 77.1881 8.67614 77.2629 8.82573 77.3377C8.97532 77.4125 9.1997 77.4125 9.42408 77.3377L9.79806 77.2629L12.1167 73.8972L12.4159 74.3459L10.4712 77.1881L13.9865 76.6646L14.2857 77.1133ZM16.0808 84.0692L15.0337 84.8919L14.7345 84.518L15.4076 83.9196L13.1638 81.4514L12.4907 82.0498L12.1915 81.6758L13.2386 80.853L13.3882 81.0026C13.5378 81.1522 13.8369 81.1522 14.1361 81.0026C14.5101 80.8531 14.8841 80.5539 15.4076 80.1799L16.38 79.432L18.2498 81.4514L15.7068 83.5456L16.0808 84.0692ZM15.632 80.6287C15.1832 80.9278 14.8093 81.227 14.5101 81.3766C14.2109 81.5262 13.9117 81.601 13.6874 81.601L15.258 83.3213L17.5019 81.5262L16.3052 80.1799L15.632 80.6287ZM21.0172 84.0692L21.3912 84.3684L19.3717 86.5374L23.3358 85.9391L23.7098 86.2382L21.1668 89.0056L20.7928 88.7065L22.8123 86.5374L18.8482 87.1358L18.4742 86.8366L21.0172 84.0692ZM29.3194 89.604L27.3747 92.7453L26.926 92.521L27.5243 91.4738L26.4772 90.8755L26.3276 90.8007L24.9065 91.399L24.3829 91.0999L25.8788 90.4267C25.6544 90.2023 25.5049 89.978 25.5049 89.7536C25.4301 89.5292 25.5049 89.23 25.6545 89.0056C25.8788 88.6317 26.178 88.4821 26.552 88.4073C26.926 88.3325 27.2999 88.4821 27.7487 88.7065L29.3194 89.604ZM26.2528 89.4544C25.9536 89.9032 26.178 90.3519 26.7764 90.6511L27.8235 91.1747L28.721 89.7536L27.7487 89.23C27.0007 88.856 26.552 88.9308 26.2528 89.4544ZM34.4802 96.0363C34.1062 95.8867 33.8818 95.7371 33.6574 95.4379C33.4331 95.2136 33.2835 94.9144 33.2835 94.6152C33.2087 94.316 33.2835 93.9421 33.4331 93.6429C33.5826 93.3437 33.807 93.0445 34.0314 92.8201C34.3306 92.5958 34.6298 92.521 34.9289 92.4462C35.3029 92.3714 35.6021 92.4462 35.9761 92.5958C36.35 92.7453 36.5744 92.8949 36.7988 93.1941C37.0232 93.4185 37.1728 93.7177 37.1728 94.0168C37.2476 94.316 37.1728 94.69 37.0232 94.9892C36.8736 95.2884 36.6492 95.5875 36.4248 95.8119C36.1257 96.0363 35.8265 96.1111 35.5273 96.1859C35.1533 96.1859 34.7794 96.1859 34.4802 96.0363ZM34.6298 95.5875C34.8542 95.6623 35.1533 95.7371 35.3777 95.6623C35.6021 95.6623 35.8265 95.5127 36.0509 95.3631C36.2752 95.2136 36.4248 94.9892 36.4996 94.7648C36.5744 94.5404 36.6492 94.2412 36.6492 94.0168C36.6492 93.7925 36.4996 93.5681 36.35 93.3437C36.2005 93.1941 35.9761 93.0445 35.7517 92.8949C35.5273 92.8201 35.2281 92.7453 35.0037 92.8201C34.7794 92.8201 34.555 92.9697 34.3306 93.1193C34.1062 93.2689 33.9566 93.4933 33.8818 93.7177C33.807 93.9421 33.7322 94.2412 33.7322 94.4656C33.7322 94.69 33.8818 94.9144 34.0314 95.1388C34.181 95.3631 34.4054 95.5127 34.6298 95.5875ZM42.3336 96.2607C42.558 96.4103 42.7823 96.5599 42.8571 96.7094C42.9319 96.859 43.0067 97.0834 42.9319 97.3078C42.8571 97.5322 42.7824 97.6818 42.558 97.8314C42.3336 97.9809 42.1092 98.0557 41.8848 98.0557C41.5856 98.0557 41.2865 98.0557 40.9873 97.9809C40.6881 97.9062 40.4637 97.8314 40.2393 97.6818C40.015 97.5322 39.7906 97.3826 39.641 97.233L39.8654 96.9338C40.015 97.0834 40.1646 97.233 40.3889 97.3826C40.6133 97.5322 40.8377 97.607 41.0621 97.607C41.4361 97.6818 41.7352 97.6818 41.9596 97.607C42.184 97.5322 42.3336 97.3826 42.4084 97.1582C42.4832 96.9338 42.4084 96.7842 42.2588 96.6346C42.1092 96.4851 41.8848 96.4103 41.5856 96.3355L40.9125 96.1859L40.9873 95.8119L41.5856 95.9615C41.8848 96.0363 42.1092 96.0363 42.3336 95.9615C42.558 95.8867 42.6328 95.8119 42.7076 95.5875C42.7823 95.3631 42.7076 95.2136 42.558 95.064C42.4084 94.9144 42.184 94.8396 41.81 94.7648C41.4361 94.69 40.9873 94.69 40.5385 94.7648L40.4637 94.3908C40.9873 94.2412 41.4361 94.2412 41.9596 94.3908C42.2588 94.4656 42.4832 94.5404 42.7076 94.69C42.9319 94.8396 43.0815 94.9892 43.1563 95.1388C43.2311 95.2884 43.3059 95.5127 43.2311 95.6623C43.1563 95.8119 43.0815 95.9615 42.9319 96.1111C42.7824 96.1859 42.558 96.2607 42.3336 96.2607ZM50.4862 98.6541L50.4114 99.9256H49.8878L49.9626 99.0281L46.5221 98.8037L46.4473 99.7012H45.9237L45.9985 98.4297H46.2229C46.4473 98.4297 46.6717 98.2801 46.8212 97.9062C46.9708 97.5322 47.0456 97.0834 47.1204 96.4851L47.27 95.2884L50.1122 95.5127L49.8878 98.7289L50.4862 98.6541ZM47.644 96.4851C47.5692 97.0086 47.4944 97.4574 47.4196 97.7566C47.3448 98.0557 47.1952 98.2801 46.9708 98.4297L49.3643 98.5793L49.5886 95.8119L47.7188 95.6623L47.644 96.4851ZM55.9462 99.1777C55.5722 99.1777 55.273 99.1777 54.899 99.0281C54.5999 98.8785 54.3007 98.6541 54.1511 98.4297C53.9267 98.1305 53.8519 97.8314 53.8519 97.4574C53.8519 97.0834 53.8519 96.7842 54.0015 96.4851C54.1511 96.1859 54.3755 95.9615 54.6746 95.8119C54.9738 95.6623 55.273 95.5127 55.647 95.5127C56.0209 95.5127 56.3201 95.5127 56.6941 95.6623C56.9933 95.8119 57.2177 96.0363 57.442 96.2607C57.6664 96.5599 57.7412 96.859 57.7412 97.233C57.7412 97.607 57.7412 97.9062 57.5916 98.2053C57.442 98.5045 57.2177 98.7289 56.9185 98.8785C56.6193 99.0281 56.3201 99.1029 55.9462 99.1777ZM55.8714 98.7289C56.1705 98.7289 56.3949 98.6541 56.6193 98.5045C56.8437 98.3549 56.9933 98.2053 57.0681 97.9809C57.1429 97.7566 57.2177 97.5322 57.2177 97.233C57.2177 96.9338 57.1429 96.7094 56.9933 96.4851C56.8437 96.2607 56.6941 96.1111 56.4697 96.0363C56.2453 95.9615 56.0209 95.8867 55.7218 95.8867C55.4226 95.8867 55.1982 95.9615 54.9738 96.1111C54.7494 96.2607 54.5999 96.4103 54.5251 96.6346C54.4503 96.859 54.3755 97.0834 54.3755 97.3826C54.3755 97.6818 54.4503 97.9062 54.5999 98.1305C54.7494 98.3549 54.899 98.5045 55.1234 98.5793C55.3478 98.6541 55.647 98.7289 55.8714 98.7289ZM62.902 94.4656C63.276 94.3908 63.5752 94.3908 63.9491 94.4656C64.2483 94.5404 64.5475 94.69 64.7719 94.9892C64.9963 95.2136 65.1458 95.5127 65.2206 95.8867C65.2954 96.2607 65.2954 96.5599 65.2206 96.859C65.1458 97.1582 64.9215 97.4574 64.6971 97.607C64.4727 97.8314 64.1735 97.981 63.7996 98.0557C63.5004 98.1305 63.2012 98.1305 62.902 98.0557C62.6028 97.981 62.3785 97.8314 62.1541 97.6818L62.6028 99.6264L62.0793 99.7012L60.8826 94.8396L61.3313 94.7648L61.4809 95.4379C61.5557 95.1388 61.7053 94.9144 61.9297 94.7648C62.3037 94.69 62.6028 94.5404 62.902 94.4656ZM63.65 97.6818C63.9491 97.607 64.1735 97.5322 64.3231 97.3826C64.4727 97.233 64.6223 97.0086 64.6971 96.7842C64.7719 96.5599 64.7719 96.2607 64.6971 96.0363C64.6223 95.7371 64.5475 95.5127 64.3231 95.3631C64.1735 95.2136 63.9491 95.064 63.7248 94.9892C63.5004 94.9144 63.2012 94.9144 62.9768 94.9892C62.6776 95.064 62.4533 95.1388 62.3037 95.2884C62.1541 95.4379 62.0045 95.6623 61.9297 95.8867C61.8549 96.1111 61.8549 96.4103 61.9297 96.6346C62.0045 96.9338 62.0793 97.1582 62.3037 97.3078C62.4533 97.4574 62.6776 97.607 62.902 97.6818C63.1264 97.7566 63.3508 97.7566 63.65 97.6818ZM70.9798 96.1859C70.6058 96.3355 70.3067 96.3355 69.9327 96.3355C69.5587 96.2607 69.2595 96.1859 69.0352 95.9615C68.736 95.7371 68.5864 95.5127 68.4368 95.1388C68.2872 94.8396 68.2872 94.4656 68.2872 94.1664C68.362 93.8673 68.4368 93.5681 68.6612 93.3437C68.8856 93.1193 69.1847 92.8949 69.4839 92.7453C69.8579 92.5958 70.1571 92.5958 70.531 92.5958C70.905 92.6706 71.2042 92.7453 71.4286 92.9697C71.7278 93.1941 71.8773 93.4185 72.0269 93.7925C72.1765 94.0916 72.1765 94.4656 72.1765 94.7648C72.1017 95.064 72.0269 95.3631 71.8025 95.5875C71.5782 95.8119 71.279 96.0363 70.9798 96.1859ZM70.8302 95.7371C71.0546 95.6623 71.279 95.5127 71.4286 95.2884C71.5782 95.1388 71.653 94.9144 71.7278 94.6152C71.7278 94.3908 71.7277 94.0916 71.5782 93.8673C71.5034 93.6429 71.3538 93.4185 71.1294 93.2689C70.905 93.1193 70.6806 93.0445 70.4562 92.9697C70.2319 92.9697 69.9327 92.9697 69.7083 93.0445C69.4839 93.1193 69.2595 93.2689 69.1099 93.4933C68.9604 93.6429 68.8856 93.8673 68.8108 94.1664C68.8108 94.3908 68.8108 94.69 68.9604 94.9144C69.0352 95.1388 69.1847 95.3631 69.4091 95.5127C69.6335 95.6623 69.8579 95.7371 70.0823 95.8119C70.3067 95.8867 70.531 95.8119 70.8302 95.7371ZM77.5617 91.1747C78.0853 91.0251 78.4592 91.1747 78.6836 91.5486C78.8332 91.8478 78.908 92.0722 78.7584 92.3714C78.6088 92.6706 78.3844 92.8949 77.9357 93.1193L76.4398 93.9421L74.4951 90.8007L75.991 89.978C76.365 89.7536 76.739 89.6788 77.0381 89.6788C77.3373 89.6788 77.5617 89.8284 77.7113 90.1275C77.7861 90.2771 77.8609 90.5015 77.8609 90.6511C77.7861 90.8007 77.7113 91.0251 77.5617 91.1747ZM75.8414 91.9226L76.8138 91.399C77.0381 91.2495 77.2625 91.0999 77.3373 90.9503C77.4121 90.8007 77.4121 90.5763 77.2625 90.4267C77.1877 90.2771 77.0381 90.1275 76.8138 90.1275C76.5894 90.1275 76.365 90.2023 76.1406 90.3519L75.1683 90.8755L75.8414 91.9226ZM77.7113 92.8201C78.0105 92.6706 78.1601 92.521 78.3096 92.3714C78.3844 92.2218 78.3844 91.9974 78.3096 91.8478C78.1601 91.6234 78.0105 91.5486 77.8609 91.5486C77.7113 91.5486 77.4121 91.6234 77.1877 91.773L76.0658 92.3714L76.739 93.4933L77.7113 92.8201ZM82.7973 85.7147L85.1907 88.5569L84.8168 88.856L82.7225 86.313L81.3014 87.3602L81.825 88.1081C82.2738 88.7065 82.5729 89.23 82.7225 89.6788C82.8721 90.0528 82.7973 90.4267 82.4981 90.6511C82.4233 90.7259 82.2738 90.8007 82.199 90.8007L81.9746 90.4267C82.0494 90.4267 82.1242 90.3519 82.1242 90.3519C82.2738 90.2023 82.3485 90.0527 82.2738 89.9032C82.2738 89.6788 82.1242 89.5292 81.9746 89.3048C81.825 89.0804 81.6006 88.7812 81.3762 88.4821L80.5535 87.435L82.7973 85.7147ZM89.6784 82.4237L87.3598 84.518C87.6589 84.7424 87.9581 84.8919 88.3321 84.8919C88.7061 84.8919 89.08 84.7424 89.3792 84.4432C89.5288 84.2936 89.6784 84.144 89.7532 83.9196C89.828 83.6952 89.9028 83.5456 89.9028 83.3213L90.3515 83.3961C90.3515 83.6204 90.3515 83.9196 90.2019 84.144C90.1272 84.3684 89.9028 84.5928 89.6784 84.8172C89.3792 85.0415 89.08 85.2659 88.7061 85.3407C88.3321 85.4155 88.0329 85.4155 87.7337 85.3407C87.4346 85.2659 87.1354 85.0415 86.8362 84.8172C86.6118 84.5928 86.3874 84.2936 86.3126 83.9944C86.2378 83.6952 86.2378 83.3961 86.3126 83.0969C86.3874 82.7977 86.6118 82.4985 86.8362 82.2741C87.0606 82.0498 87.3598 81.9002 87.7337 81.8254C88.0329 81.7506 88.4069 81.7506 88.7061 81.9002C89.0052 81.975 89.3044 82.1993 89.6036 82.4237H89.6784ZM87.1354 82.4985C86.8362 82.7229 86.6866 83.0221 86.6866 83.3213C86.6866 83.6204 86.7614 83.9196 86.9858 84.2188L89.0052 82.4237C88.7061 82.1993 88.4069 82.0498 88.0329 82.0498C87.7337 82.1246 87.4346 82.2741 87.1354 82.4985ZM90.3515 78.684L90.6507 78.31L92.0718 79.2076L93.4929 77.3377L92.0718 76.4402L92.371 76.0662L95.5123 78.1605L95.2132 78.5344L93.7921 77.6369L92.371 79.5068L93.7921 80.4043L93.4929 80.7783L90.3515 78.684ZM94.3904 72.9996L94.6148 72.5509L97.3074 73.8972L95.7367 70.3818L95.9611 70.0079L99.4016 71.6534L99.1773 72.1021L96.4847 70.7558L98.0554 74.2712L97.831 74.6451L94.3904 72.9996ZM98.5041 64.0991L102.169 65.2958L102.019 65.7446L100.823 65.3706L100.449 66.4177L100.374 66.5673L101.271 67.764L101.122 68.2876L100.15 67.0161C100 67.2405 99.7756 67.3901 99.5512 67.5397C99.3269 67.6145 99.0277 67.6145 98.7285 67.5397C98.3545 67.3901 98.0553 67.1657 97.9058 66.8665C97.7562 66.5673 97.831 66.1186 97.9806 65.6698L98.5041 64.0991ZM98.9529 66.9413C99.4764 67.0909 99.8504 66.8665 100.15 66.1934L100.524 65.1462L98.8781 64.6227L98.5041 65.6698C98.2049 66.343 98.3545 66.7917 98.9529 66.9413Z" fill="#9D7E6D"/>
<path fill-rule="evenodd" clip-rule="evenodd" d="M3.21616 54.5249C3.9641 54.5249 4.56245 55.1233 4.56245 55.7964C4.56245 56.4696 3.9641 57.0679 3.21616 57.0679C2.46821 57.0679 1.86986 56.4696 1.86986 55.7964C1.86986 55.0485 2.46821 54.5249 3.21616 54.5249Z" fill="#9D7E6D"/>
<path fill-rule="evenodd" clip-rule="evenodd" d="M101.421 54.5249C102.169 54.5249 102.767 55.1233 102.767 55.7964C102.767 56.4696 102.169 57.0679 101.421 57.0679C100.673 57.0679 100.075 56.4696 100.075 55.7964C100.075 55.0485 100.673 54.5249 101.421 54.5249Z" fill="#9D7E6D"/>
</g>
<defs>
<clipPath id="clip0_2197_335">
<rect width="105.909" height="100" fill="white"/>
</clipPath>
</defs>
</svg>
