<svg width="105" height="100" viewBox="0 0 105 100" fill="none" xmlns="http://www.w3.org/2000/svg">
<g clip-path="url(#clip0_2197_408)">
<path fill-rule="evenodd" clip-rule="evenodd" d="M73.1144 37.3972C73.1144 36.5744 72.9661 35.9013 72.5953 35.3777C72.2246 34.8541 71.7796 34.4802 71.2606 34.2558C70.7415 34.0314 70.0741 33.8818 69.4068 33.807C68.7394 33.7322 68.072 33.6574 67.4046 33.6574V32.5355H82.6059V33.6574C81.9385 33.6574 81.2712 33.7322 80.6038 33.807C79.9364 33.8818 79.269 34.0314 78.75 34.2558C78.2309 34.4802 77.7118 34.8541 77.4152 35.3777C77.0445 35.9013 76.8962 36.5744 76.8962 37.3972V66.4173C76.8962 67.3149 77.0445 67.988 77.4152 68.4368C77.786 68.9604 78.2309 69.2595 78.75 69.5587C79.269 69.7831 79.9364 69.9327 80.6038 70.0075C81.2712 70.0823 81.9385 70.1571 82.6059 70.1571V71.279H68.8135C63.697 71.279 58.5805 71.279 53.464 71.279H49.9788C47.5318 71.2042 45.3072 70.8302 42.8601 69.2595C41.5996 68.4368 40.5614 67.5393 39.7457 66.4173C38.9301 65.2954 38.1885 64.1735 37.6695 62.902C37.1504 61.6305 36.7055 60.359 36.4089 59.0875C36.2606 58.3396 36.0381 57.5916 35.8898 56.8437L34.7775 59.0127L30.9216 66.6417C30.6991 67.1653 30.5508 67.6141 30.5508 68.0628C30.5508 68.9604 30.9216 69.4839 31.6631 69.7831C32.4046 70.0823 33.1462 70.1571 33.9618 70.1571V71.279H22.394V70.1571C24.2479 70.1571 25.7309 69.8579 26.8432 69.1847C27.8813 68.5116 28.8453 67.4645 29.5868 65.9686L35.4449 54.3755C34.7034 51.0845 32.8496 48.0927 29.5127 45.9985L35.1483 43.0815C36.4089 44.1286 37.5953 46.896 38.0402 48.3919C38.1144 48.5415 38.1885 48.7659 38.1885 48.9155L43.1568 38.893C42.1928 37.7711 41.1546 36.9484 40.1907 36.2752C39.2267 35.6021 38.1144 35.0785 37.0021 34.7046L43.8241 31.1892L62.9555 66.1182C63.1779 66.5669 63.4746 67.0157 63.9195 67.5393C64.2902 68.0628 64.7351 68.4368 65.2542 68.8108C67.108 70.2319 69.1101 70.4562 71.2606 69.4839C71.7796 69.2595 72.2987 68.8856 72.5953 68.362C72.9661 67.8384 73.1144 67.1653 73.1144 66.3425V37.3972ZM58.5063 66.9409C58.5063 66.4921 58.4322 66.193 58.2839 65.8938L54.5021 58.9379L53.3157 56.6941L44.1949 39.8654L38.6334 51.0845C38.7076 51.3837 38.7076 51.6081 38.7818 51.9072C39.0784 53.4031 39.375 54.899 39.8199 56.5445C40.2648 58.19 40.7839 59.8354 41.3771 61.4809C41.9703 63.1264 42.8601 64.6223 43.8983 65.8938C44.9364 67.1653 46.2712 68.2872 47.8284 69.1099C49.3856 69.9327 51.3135 70.2319 53.5381 70.1571C55.6885 70.0823 58.5063 69.4839 58.5063 66.9409Z" fill="white"/>
<path fill-rule="evenodd" clip-rule="evenodd" d="M74.2267 30.8153C73.2627 29.2446 71.8538 27.8235 70 26.6268L75.6356 23.7098C76.8962 24.7569 78.0826 27.5243 78.5275 29.0202L74.2267 30.8153Z" fill="white"/>
<path fill-rule="evenodd" clip-rule="evenodd" d="M7.63771 44.8011L7.26695 47.4937L0 46.5961L0.370763 43.9035C0.519068 42.9312 0.963983 42.1085 1.77966 41.5101C2.59534 40.9118 3.48517 40.6874 4.5233 40.837C5.56144 40.9866 6.37712 41.4353 6.97034 42.1833C7.56356 42.9312 7.78602 43.8288 7.63771 44.8011ZM1.4089 45.4742L6.30297 46.0726L6.52542 44.6515C6.59958 43.9783 6.45127 43.38 6.08051 42.9312C5.70975 42.4825 5.11653 42.1833 4.44915 42.1085C3.78178 42.0337 3.11441 42.1833 2.59534 42.4824C2.07627 42.8564 1.77966 43.3052 1.70551 43.9783L1.4089 45.4742ZM9.19491 37.4712L8.82415 38.6679L3.55932 37.2468L3.78178 36.4989H4.81992C4.67161 36.3493 4.59746 36.2745 4.5233 36.1249C4.44915 35.9753 4.375 35.8258 4.30085 35.6762C4.2267 35.5266 4.22669 35.3022 4.22669 35.003C4.22669 34.7786 4.30085 34.4795 4.44915 34.1803L5.70975 34.7038C5.48729 35.3022 5.48729 35.751 5.63559 36.1249C5.85805 36.4241 6.22881 36.6485 6.67373 36.7981L9.19491 37.4712ZM10.4555 33.8063C10.2331 33.8811 10.0106 33.8811 9.78814 33.8063C9.56568 33.7315 9.41737 33.5819 9.34322 33.3575C9.26907 33.1332 9.26907 32.9088 9.34322 32.7592C9.41737 32.5348 9.56568 32.3852 9.78814 32.3104C10.0106 32.2356 10.2331 32.2356 10.4555 32.3104C10.678 32.3852 10.8263 32.5348 10.9004 32.7592C10.9746 32.9836 10.9746 33.208 10.9004 33.3575C10.8263 33.6567 10.678 33.7315 10.4555 33.8063ZM13.7924 27.6732L12.9025 28.8699L8.82415 22.288L9.56568 21.3157L17.4258 22.8115L16.536 24.0083L14.9047 23.7091L12.9025 26.3269L13.7924 27.6732ZM10.678 22.8115L12.2352 25.2798L13.6441 23.3351L10.678 22.8115ZM20.0212 20.1937L19.0572 21.0913L14.0148 16.0053L14.9788 15.1825L21.1335 16.2296L17.6483 12.7143L18.6123 11.8168L23.6547 16.9028L22.6907 17.7255L16.536 16.6784L20.0212 20.1937ZM27.4364 14.285L24.6928 10.2461L30.5508 12.3403L31.6631 11.6672L27.6589 5.75844L26.5466 6.43159L29.2903 10.4705L23.4322 8.37624L22.3199 9.04939L26.3242 14.9581L27.4364 14.285ZM35.3708 10.2461L33.8877 10.6949L34.7775 3.06584L35.964 2.69187L41.303 8.37624L39.8199 8.82501L38.7076 7.6283L35.4449 8.60062L35.3708 10.2461ZM35.964 4.56173L35.5932 7.40391L37.9661 6.65597L35.964 4.56173ZM47.161 7.40391L45.8263 7.5535L44.8623 0.59763L46.197 0.448041L47.161 7.40391ZM56.4301 6.282C55.6886 6.95515 54.7987 7.32912 53.7606 7.25432C52.7225 7.25432 51.8326 6.88035 51.0911 6.13241C50.3496 5.38447 50.053 4.56173 50.053 3.51461C50.053 2.46749 50.4237 1.64475 51.1653 0.971601C51.9068 0.298453 52.7966 -0.075519 53.8347 -0.00072464C54.8729 -0.00072464 55.7627 0.373247 56.5042 1.12119C57.2458 1.86913 57.5424 2.69187 57.5424 3.73899C57.6165 4.71132 57.1716 5.53405 56.4301 6.282ZM53.7606 6.05762C54.5021 6.05762 55.0953 5.83323 55.5403 5.38447C55.9852 4.9357 56.2076 4.33735 56.2076 3.6642C56.2076 2.99105 55.9852 2.39269 55.5403 1.94393C55.0953 1.42037 54.5021 1.19598 53.8347 1.19598C53.0932 1.19598 52.5742 1.42037 52.0551 1.86913C51.6102 2.3179 51.3877 2.91625 51.3877 3.5894C51.3877 4.26255 51.6102 4.86091 52.0551 5.30967C52.5 5.83323 53.0932 6.05762 53.7606 6.05762ZM61.6949 8.00227L60.3602 7.70309L61.9915 0.896807L65.1059 1.56996C65.4025 1.64475 65.6992 1.71954 65.9216 1.86913C66.1441 2.01872 66.4407 2.16831 66.589 2.39269C66.8114 2.61708 66.9597 2.84146 67.0339 3.14064C67.108 3.43981 67.108 3.73899 67.0339 4.11296C66.8856 4.71132 66.589 5.16008 66.1441 5.38447C65.6992 5.60885 65.1801 5.68364 64.5127 5.60885L66.0699 8.97459L64.5127 8.67542L63.0297 5.30967L62.3623 5.16008L61.6949 8.00227ZM63.0297 2.3179L62.5847 4.03817L64.2161 4.41214C65.0318 4.56173 65.4767 4.41214 65.625 3.81379C65.6992 3.51461 65.625 3.29023 65.4767 3.14064C65.3284 2.91625 65.0318 2.84146 64.5869 2.69187L63.0297 2.3179ZM71.1864 10.9192L68.5911 9.79733L71.6314 3.43981L74.2267 4.56173C75.1907 5.01049 75.8581 5.60885 76.2288 6.50638C76.5996 7.40391 76.5254 8.30145 76.0805 9.19898C75.6356 10.0965 74.9682 10.7697 74.0042 11.0688C73.1144 11.4428 72.1504 11.368 71.1864 10.9192ZM72.3729 5.01049L70.2966 9.27377L71.7055 9.87213C72.3729 10.1713 72.9661 10.1713 73.5593 9.94692C74.1525 9.72254 74.5975 9.27377 74.8941 8.67542C75.1907 8.07706 75.2648 7.47871 75.0424 6.88035C74.8199 6.282 74.4492 5.90803 73.7818 5.60885L72.3729 5.01049ZM77.4153 14.285L78.8242 13.4623L81.6419 15.3321L81.3453 16.9028L82.6059 17.7255L84.1631 10.1713L83.125 9.49815L76.2288 13.4623L77.4153 14.285ZM82.5318 11.2932L81.9386 14.1354L79.9364 12.7891L82.5318 11.2932ZM85.1271 20.4181L84.2373 19.4458L89.7246 14.8086L90.6144 15.7061L89.3538 21.54L93.1356 18.3239L94.0254 19.2962L88.5381 23.9335L87.6483 23.0359L88.9089 17.202L85.1271 20.4181ZM92.0233 29.3187L94.3962 28.0471L99.7352 28.1967L98.9936 26.8504L95.286 26.7756L97.0657 23.7091L96.3983 22.4376L93.803 26.9252L91.4301 28.1967L92.0233 29.3187ZM94.2479 33.5819L93.7288 32.2356L101.737 32.9836L102.108 34.1055L96.1758 39.2663L95.6568 37.92L96.9174 36.8729L95.8051 33.8063L94.2479 33.5819ZM100.18 34.0307L97.1398 33.7315L97.9555 35.9753L100.18 34.0307ZM97.0657 42.7816L96.9174 41.5101L104.184 40.5378L104.333 41.7345L99.8093 45.923L104.852 45.2498L105 46.5213L97.7331 47.4937L97.5847 46.297L102.108 42.1085L97.0657 42.7816Z" fill="white"/>
<path fill-rule="evenodd" clip-rule="evenodd" d="M4.00421 66.6417C3.8559 66.2678 3.8559 65.9686 3.93006 65.6694C4.00421 65.3702 4.15251 65.0711 4.37497 64.8467C4.59743 64.6223 4.89404 64.3979 5.2648 64.3231C5.63556 64.1735 5.93217 64.1735 6.30294 64.2483C6.6737 64.3231 6.89616 64.4727 7.19277 64.6971C7.41522 64.9215 7.63768 65.2206 7.78599 65.5198C7.86014 65.819 7.93429 66.1182 7.86014 66.3426C7.78599 66.6417 7.71183 66.8661 7.48938 67.0905L7.11861 66.7913C7.26692 66.6417 7.34107 66.4174 7.34107 66.193C7.34107 65.9686 7.34107 65.819 7.26692 65.5946C7.19277 65.3702 7.04446 65.1458 6.822 64.9963C6.59955 64.8467 6.37709 64.6971 6.15463 64.6971C5.93217 64.6223 5.63556 64.6971 5.33895 64.7719C5.04234 64.8467 4.81989 64.9963 4.67158 65.1458C4.59743 65.3702 4.44912 65.5946 4.44912 65.819C4.37497 66.0434 4.44912 66.2678 4.52328 66.5669C4.59743 66.7913 4.67158 66.9409 4.81989 67.0905C4.96819 67.2401 5.1165 67.3149 5.33895 67.3897L5.19065 67.8384C4.89404 67.7636 4.67158 67.6141 4.44912 67.4645C4.30082 67.2401 4.15251 66.9409 4.00421 66.6417ZM10.3072 72.1017L9.6398 70.8302L6.6737 72.3261L6.45124 71.8773L9.41734 70.3814L8.74997 69.1847L9.12073 68.9604L10.6779 71.8773L10.3072 72.1017ZM14.1631 77.1129L9.56565 77.7861C9.19488 77.8609 8.89827 77.8609 8.60167 77.7113C8.37921 77.6365 8.15675 77.4869 8.00844 77.2625C7.93429 77.1129 7.86014 76.9633 7.78599 76.8138C7.71183 76.6642 7.71183 76.5146 7.78599 76.365H8.2309C8.15675 76.5894 8.2309 76.8886 8.37921 77.0381C8.45336 77.1877 8.60166 77.2625 8.74997 77.3373C8.89827 77.4121 9.12073 77.4121 9.34319 77.3373L9.71395 77.2625L12.0127 73.8968L12.3093 74.3455L10.3813 77.1877L13.8665 76.6642L14.1631 77.1129ZM15.9428 84.0688L14.9046 84.8915L14.608 84.5176L15.2754 83.9192L13.0508 81.451L12.3834 82.0494L12.0868 81.6754L13.125 80.8527L13.2733 81.0022C13.4216 81.1518 13.7182 81.1518 14.0148 81.0022C14.3856 80.8527 14.7563 80.5535 15.2754 80.1795L16.2394 79.4316L18.0932 81.451L15.572 83.5452L15.9428 84.0688ZM15.4979 80.6283C15.0529 80.9275 14.6822 81.2266 14.3856 81.3762C14.089 81.5258 13.7923 81.6006 13.5699 81.6006L15.1271 83.3209L17.3517 81.5258L16.1652 80.1795L15.4979 80.6283ZM20.8368 84.0688L21.2076 84.368L19.2055 86.537L23.1356 85.9387L23.5063 86.2378L20.9851 89.0052L20.6144 88.7061L22.6165 86.537L18.6864 87.1354L18.3156 86.8362L20.8368 84.0688ZM29.0678 89.6036L27.1398 92.7449L26.6949 92.5206L27.2881 91.4734L26.25 90.8751L26.1017 90.8003L24.6928 91.3986L24.1737 91.0995L25.6567 90.4263C25.4343 90.2019 25.286 89.9776 25.286 89.7532C25.2118 89.5288 25.286 89.2296 25.4343 89.0052C25.6567 88.6313 25.9534 88.4817 26.3241 88.4069C26.6949 88.3321 27.0656 88.4817 27.5106 88.7061L29.0678 89.6036ZM26.0275 89.454C25.7309 89.9028 25.9534 90.3515 26.5466 90.6507L27.5847 91.1743L28.4745 89.7532L27.5106 89.2296C26.769 88.8556 26.3241 88.9304 26.0275 89.454ZM34.1843 96.0359C33.8135 95.8863 33.5911 95.7367 33.3686 95.4375C33.1462 95.2132 32.9978 94.914 32.9978 94.6148C32.9237 94.3156 32.9979 93.9417 33.1462 93.6425C33.2945 93.3433 33.5169 93.0441 33.7394 92.8197C34.036 92.5954 34.3326 92.5206 34.6292 92.4458C35 92.371 35.2966 92.4458 35.6673 92.5954C36.0381 92.745 36.2606 92.8945 36.483 93.1937C36.7055 93.4181 36.8538 93.7173 36.8538 94.0165C36.9279 94.3156 36.8538 94.6896 36.7055 94.9888C36.5572 95.288 36.3347 95.5871 36.1123 95.8115C35.8156 96.0359 35.519 96.1107 35.2224 96.1855C34.8517 96.1855 34.4809 96.1855 34.1843 96.0359ZM34.3326 95.5871C34.5551 95.6619 34.8517 95.7367 35.0741 95.6619C35.2966 95.6619 35.519 95.5123 35.7415 95.3628C35.964 95.2132 36.1123 94.9888 36.1864 94.7644C36.2606 94.54 36.3347 94.2408 36.3347 94.0165C36.3347 93.7921 36.1864 93.5677 36.0381 93.3433C35.8898 93.1937 35.6673 93.0441 35.4449 92.8945C35.2224 92.8197 34.9258 92.7449 34.7034 92.8197C34.4809 92.8197 34.2584 92.9693 34.036 93.1189C33.8135 93.2685 33.6652 93.4929 33.5911 93.7173C33.5169 93.9417 33.4428 94.2408 33.4428 94.4652C33.4428 94.6896 33.5911 94.914 33.7394 95.1384C33.8877 95.3627 34.1101 95.5123 34.3326 95.5871ZM41.9703 96.2603C42.1928 96.4099 42.4152 96.5595 42.4894 96.709C42.5635 96.8586 42.6377 97.083 42.5635 97.3074C42.4894 97.5318 42.4152 97.6814 42.1928 97.831C41.9703 97.9806 41.7478 98.0554 41.5254 98.0554C41.2288 98.0554 40.9322 98.0553 40.6356 97.9806C40.339 97.9058 40.1165 97.831 39.894 97.6814C39.6716 97.5318 39.4491 97.3822 39.3008 97.2326L39.5233 96.9334C39.6716 97.083 39.8199 97.2326 40.0423 97.3822C40.2648 97.5318 40.4873 97.6066 40.7097 97.6066C41.0805 97.6814 41.3771 97.6814 41.5995 97.6066C41.822 97.5318 41.9703 97.3822 42.0445 97.1578C42.1186 96.9334 42.0445 96.7838 41.8962 96.6343C41.7478 96.4847 41.5254 96.4099 41.2288 96.3351L40.5614 96.1855L40.6356 95.8115L41.2288 95.9611C41.5254 96.0359 41.7478 96.0359 41.9703 95.9611C42.1928 95.8863 42.2669 95.8115 42.3411 95.5871C42.4152 95.3628 42.3411 95.2132 42.1928 95.0636C42.0445 94.914 41.822 94.8392 41.4512 94.7644C41.0805 94.6896 40.6356 94.6896 40.1906 94.7644L40.1165 94.3904C40.6356 94.2408 41.0805 94.2408 41.5995 94.3904C41.8962 94.4652 42.1186 94.54 42.3411 94.6896C42.5635 94.8392 42.7118 94.9888 42.786 95.1384C42.8601 95.288 42.9343 95.5123 42.8601 95.6619C42.786 95.8115 42.7118 95.9611 42.5635 96.1107C42.4152 96.1855 42.1928 96.2603 41.9703 96.2603ZM50.0529 98.6537L49.9788 99.9252H49.4597L49.5339 99.0277L46.1228 98.8033L46.0487 99.7008H45.5296L45.6038 98.4293H45.8262C46.0487 98.4293 46.2712 98.2797 46.4195 97.9058C46.5678 97.5318 46.6419 97.083 46.7161 96.4847L46.8644 95.288L49.6822 95.5123L49.4597 98.7285L50.0529 98.6537ZM47.2351 96.4847C47.161 97.0082 47.0868 97.457 47.0127 97.7562C46.9385 98.0553 46.7902 98.2797 46.5678 98.4293L48.9406 98.5789L49.1631 95.8115L47.3093 95.6619L47.2351 96.4847ZM55.4661 99.1773C55.0953 99.1773 54.7987 99.1773 54.4279 99.0277C54.1313 98.8781 53.8347 98.6537 53.6864 98.4293C53.464 98.1301 53.3898 97.831 53.3898 97.457C53.3898 97.083 53.3898 96.7838 53.5381 96.4847C53.6864 96.1855 53.9089 95.9611 54.2055 95.8115C54.5021 95.6619 54.7987 95.5123 55.1695 95.5123C55.5402 95.5123 55.8368 95.5123 56.2076 95.6619C56.5042 95.8115 56.7267 96.0359 56.9491 96.2603C57.1716 96.5595 57.2457 96.8586 57.2457 97.2326C57.2457 97.6066 57.2457 97.9058 57.0974 98.2049C56.9491 98.5041 56.7267 98.7285 56.43 98.8781C56.1334 99.0277 55.8368 99.1025 55.4661 99.1773ZM55.3919 98.7285C55.6885 98.7285 55.911 98.6537 56.1334 98.5041C56.3559 98.3545 56.5042 98.2049 56.5784 97.9806C56.6525 97.7562 56.7267 97.5318 56.7267 97.2326C56.7267 96.9334 56.6525 96.709 56.5042 96.4847C56.3559 96.2603 56.2076 96.1107 55.9851 96.0359C55.7627 95.9611 55.5402 95.8863 55.2436 95.8863C54.947 95.8863 54.7245 95.9611 54.5021 96.1107C54.2796 96.2603 54.1313 96.4099 54.0572 96.6343C53.983 96.8586 53.9089 97.083 53.9089 97.3822C53.9089 97.6814 53.983 97.9058 54.1313 98.1301C54.2796 98.3545 54.4279 98.5041 54.6504 98.5789C54.8728 98.6537 55.1695 98.7285 55.3919 98.7285ZM62.3623 94.4652C62.733 94.3904 63.0296 94.3904 63.4004 94.4652C63.697 94.54 63.9936 94.6896 64.2161 94.9888C64.4385 95.2132 64.5868 95.5123 64.661 95.8863C64.7351 96.2603 64.7351 96.5595 64.661 96.8586C64.5868 97.1578 64.3644 97.457 64.1419 97.6066C63.9195 97.831 63.6228 97.9806 63.2521 98.0554C62.9555 98.1301 62.6589 98.1301 62.3623 98.0554C62.0656 97.9806 61.8432 97.831 61.6207 97.6814L62.0656 99.626L61.5466 99.7008L60.3601 94.8392L60.805 94.7644L60.9534 95.4375C61.0275 95.1384 61.1758 94.914 61.3983 94.7644C61.769 94.6896 62.0656 94.54 62.3623 94.4652ZM63.1038 97.6814C63.4004 97.6066 63.6228 97.5318 63.7712 97.3822C63.9195 97.2326 64.0678 97.0082 64.1419 96.7838C64.2161 96.5595 64.2161 96.2603 64.1419 96.0359C64.0678 95.7367 63.9936 95.5123 63.7712 95.3628C63.6228 95.2132 63.4004 95.0636 63.1779 94.9888C62.9555 94.914 62.6589 94.914 62.4364 94.9888C62.1398 95.0636 61.9173 95.1384 61.769 95.288C61.6207 95.4375 61.4724 95.6619 61.3983 95.8863C61.3241 96.1107 61.3241 96.4099 61.3983 96.6343C61.4724 96.9334 61.5466 97.1578 61.769 97.3074C61.9173 97.457 62.1398 97.6066 62.3623 97.6814C62.5847 97.7562 62.8072 97.7562 63.1038 97.6814ZM70.3707 96.1855C70 96.3351 69.7034 96.3351 69.3326 96.3351C68.9618 96.2603 68.6652 96.1855 68.4428 95.9611C68.1462 95.7367 67.9978 95.5123 67.8495 95.1384C67.7012 94.8392 67.7012 94.4652 67.7012 94.166C67.7754 93.8669 67.8495 93.5677 68.072 93.3433C68.2945 93.1189 68.5911 92.8945 68.8877 92.7449C69.2584 92.5954 69.5551 92.5954 69.9258 92.5954C70.2966 92.6702 70.5932 92.745 70.8156 92.9693C71.1123 93.1937 71.2606 93.4181 71.4089 93.7921C71.5572 94.0912 71.5572 94.4652 71.5572 94.7644C71.483 95.0636 71.4089 95.3628 71.1864 95.5871C70.964 95.8115 70.6673 96.0359 70.3707 96.1855ZM70.2224 95.7367C70.4449 95.6619 70.6673 95.5123 70.8156 95.288C70.964 95.1384 71.0381 94.914 71.1123 94.6148C71.1123 94.3904 71.1123 94.0912 70.9639 93.8669C70.8898 93.6425 70.7415 93.4181 70.519 93.2685C70.2966 93.1189 70.0741 93.0441 69.8517 92.9693C69.6292 92.9693 69.3326 92.9693 69.1101 93.0441C68.8877 93.1189 68.6652 93.2685 68.5169 93.4929C68.3686 93.6425 68.2945 93.8669 68.2203 94.166C68.2203 94.3904 68.2203 94.6896 68.3686 94.914C68.4428 95.1384 68.5911 95.3627 68.8135 95.5123C69.036 95.6619 69.2584 95.7367 69.4809 95.8115C69.7034 95.8863 69.9258 95.8115 70.2224 95.7367ZM76.8961 91.1743C77.4152 91.0247 77.786 91.1743 78.0084 91.5482C78.1567 91.8474 78.2309 92.0718 78.0826 92.371C77.9343 92.6702 77.7118 92.8945 77.2669 93.1189L75.7839 93.9417L73.8559 90.8003L75.3389 89.9776C75.7097 89.7532 76.0805 89.6784 76.3771 89.6784C76.6737 89.6784 76.8961 89.828 77.0445 90.1271C77.1186 90.2767 77.1928 90.5011 77.1928 90.6507C77.1186 90.8003 77.0445 91.0247 76.8961 91.1743ZM75.1906 91.9222L76.1546 91.3986C76.3771 91.2491 76.5995 91.0995 76.6737 90.9499C76.7478 90.8003 76.7478 90.5759 76.5995 90.4263C76.5254 90.2767 76.3771 90.1271 76.1546 90.1271C75.9322 90.1271 75.7097 90.2019 75.4873 90.3515L74.5233 90.8751L75.1906 91.9222ZM77.0445 92.8197C77.3411 92.6702 77.4894 92.5206 77.6377 92.371C77.7118 92.2214 77.7118 91.997 77.6377 91.8474C77.4894 91.623 77.3411 91.5482 77.1928 91.5482C77.0445 91.5482 76.7478 91.623 76.5254 91.7726L75.4131 92.371L76.0805 93.4929L77.0445 92.8197ZM82.0868 85.7143L84.4597 88.5565L84.0889 88.8556L82.0127 86.3126L80.6038 87.3598L81.1228 88.1077C81.5678 88.7061 81.8644 89.2296 82.0127 89.6784C82.161 90.0524 82.0868 90.4263 81.7902 90.6507C81.7161 90.7255 81.5678 90.8003 81.4936 90.8003L81.2711 90.4263C81.3453 90.4263 81.4195 90.3515 81.4195 90.3515C81.5678 90.2019 81.6419 90.0524 81.5678 89.9028C81.5678 89.6784 81.4195 89.5288 81.2711 89.3044C81.1228 89.08 80.9004 88.7809 80.6779 88.4817L79.8623 87.4346L82.0868 85.7143ZM88.9089 82.4233L86.6101 84.5176C86.9067 84.742 87.2034 84.8915 87.5741 84.8915C87.9449 84.8915 88.3156 84.742 88.6123 84.4428C88.7606 84.2932 88.9089 84.1436 88.983 83.9192C89.0572 83.6948 89.1313 83.5452 89.1313 83.3209L89.5762 83.3957C89.5762 83.62 89.5762 83.9192 89.4279 84.1436C89.3538 84.368 89.1313 84.5924 88.9089 84.8168C88.6123 85.0411 88.3156 85.2655 87.9449 85.3403C87.5741 85.4151 87.2775 85.4151 86.9809 85.3403C86.6843 85.2655 86.3877 85.0411 86.0911 84.8168C85.8686 84.5924 85.6461 84.2932 85.572 83.994C85.4978 83.6948 85.4978 83.3957 85.572 83.0965C85.6461 82.7973 85.8686 82.4981 86.0911 82.2737C86.3135 82.0494 86.6101 81.8998 86.9809 81.825C87.2775 81.7502 87.6483 81.7502 87.9449 81.8998C88.2415 81.9746 88.5381 82.1989 88.8347 82.4233H88.9089ZM86.3877 82.4981C86.0911 82.7225 85.9428 83.0217 85.9428 83.3209C85.9428 83.62 86.0169 83.9192 86.2394 84.2184L88.2415 82.4233C87.9449 82.1989 87.6483 82.0494 87.2775 82.0494C86.9809 82.1242 86.6843 82.2737 86.3877 82.4981ZM89.5762 78.6836L89.8728 78.3096L91.2817 79.2072L92.6906 77.3373L91.2817 76.4398L91.5784 76.0658L94.6928 78.1601L94.3961 78.534L92.9873 77.6365L91.5784 79.5064L92.9873 80.4039L92.6906 80.7779L89.5762 78.6836ZM93.5805 72.9992L93.8029 72.5505L96.4724 73.8968L94.9152 70.3814L95.1377 70.0075L98.5487 71.653L98.3262 72.1017L95.6567 70.7554L97.214 74.2708L96.9915 74.6447L93.5805 72.9992ZM97.6589 64.0987L101.292 65.2954L101.144 65.7442L99.9576 65.3702L99.5868 66.4174L99.5127 66.5669L100.402 67.7636L100.254 68.2872L99.2902 67.0157C99.1419 67.2401 98.9195 67.3897 98.697 67.5393C98.4745 67.6141 98.1779 67.6141 97.8813 67.5393C97.5106 67.3897 97.2139 67.1653 97.0656 66.8661C96.9173 66.5669 96.9915 66.1182 97.1398 65.6694L97.6589 64.0987ZM98.1038 66.9409C98.6228 67.0905 98.9936 66.8661 99.2902 66.193L99.661 65.1458L98.0296 64.6223L97.6589 65.6694C97.3623 66.3426 97.5106 66.7913 98.1038 66.9409Z" fill="white"/>
<path fill-rule="evenodd" clip-rule="evenodd" d="M3.18857 54.5251C3.93009 54.5251 4.52331 55.1234 4.52331 55.7966C4.52331 56.4697 3.93009 57.0681 3.18857 57.0681C2.44704 57.0681 1.85382 56.4697 1.85382 55.7966C1.85382 55.0486 2.44704 54.5251 3.18857 54.5251Z" fill="white"/>
<path fill-rule="evenodd" clip-rule="evenodd" d="M100.551 54.5251C101.292 54.5251 101.886 55.1234 101.886 55.7966C101.886 56.4697 101.292 57.0681 100.551 57.0681C99.8093 57.0681 99.2161 56.4697 99.2161 55.7966C99.2161 55.0486 99.8093 54.5251 100.551 54.5251Z" fill="white"/>
</g>
<defs>
<clipPath id="clip0_2197_408">
<rect width="105" height="100" fill="white"/>
</clipPath>
</defs>
</svg>
