<svg width="20" height="20" viewBox="0 0 20 20" fill="none" xmlns="http://www.w3.org/2000/svg">
<g clip-path="url(#clip0_2197_434)">
<path fill-rule="evenodd" clip-rule="evenodd" d="M17.32 17.32L14.4 17.62L12.68 20L10 18.8L7.32 20L5.6 17.62L2.68 17.32L2.38 14.4L0 12.68L1.2 10L0 7.32L2.38 5.6L2.68 2.68L5.6 2.38L7.32 0L10 1.2L12.68 0L14.4 2.38L17.32 2.68L17.62 5.6L20 7.32L18.8 10L20 12.68L17.62 14.4L17.32 17.32Z" fill="#B70B0B"/>
<path d="M7.86004 14L12.94 5.6H11.55L6.46004 14H7.86004ZM6.82004 5.43C5.45004 5.43 4.79004 6.42 4.79004 7.71C4.79004 9.01 5.45004 9.97 6.82004 9.97C8.20004 9.97 8.86004 9.01 8.86004 7.71C8.86004 6.42 8.20004 5.43 6.82004 5.43ZM6.82004 8.84C6.28004 8.84 6.08004 8.37 6.08004 7.71C6.08004 7.04 6.28004 6.56 6.82004 6.56C7.36004 6.56 7.58004 7.04 7.58004 7.71C7.58004 8.37 7.36004 8.84 6.82004 8.84ZM12.57 9.62C11.2 9.62 10.54 10.6 10.54 11.9C10.54 13.2 11.2 14.16 12.57 14.16C13.95 14.16 14.61 13.2 14.61 11.9C14.61 10.6 13.95 9.62 12.57 9.62ZM12.57 13.03C12.03 13.03 11.82 12.56 11.82 11.9C11.82 11.23 12.03 10.75 12.57 10.75C13.11 10.75 13.32 11.23 13.32 11.9C13.32 12.56 13.11 13.03 12.57 13.03Z" fill="white"/>
<path d="M7.85999 14V14.3H8.02999L8.11999 14.16L7.85999 14ZM12.94 5.6L13.2 5.76L13.47 5.3H12.94V5.6ZM11.55 5.6V5.3H11.38L11.29 5.44L11.55 5.6ZM6.45999 14L6.19999 13.84L5.92999 14.3H6.45999V14ZM8.11999 14.16L13.2 5.76L12.68 5.44L7.60999 13.84L8.11999 14.16ZM12.94 5.3H11.55V5.9H12.94V5.3ZM11.29 5.44L6.19999 13.84L6.71999 14.16L11.81 5.76L11.29 5.44ZM6.45999 14.3H7.85999V13.7H6.45999V14.3ZM6.81999 5.13C6.05999 5.13 5.45999 5.41 5.05999 5.9C4.66999 6.37 4.48999 7.02 4.48999 7.71H5.08999C5.08999 7.11 5.24999 6.62 5.52999 6.28C5.79999 5.95 6.21999 5.73 6.81999 5.73V5.13ZM4.48999 7.71C4.48999 8.41 4.66999 9.05 5.05999 9.52C5.45999 10 6.05999 10.27 6.81999 10.27V9.67C6.20999 9.67 5.79999 9.46 5.51999 9.13C5.24999 8.8 5.08999 8.31 5.08999 7.71H4.48999ZM6.81999 10.27C7.58999 10.27 8.18999 10 8.58999 9.52C8.97999 9.05 9.15999 8.41 9.15999 7.71H8.55999C8.55999 8.31 8.40999 8.8 8.12999 9.13C7.85999 9.46 7.43999 9.67 6.81999 9.67V10.27ZM9.15999 7.71C9.15999 7.02 8.97999 6.37 8.58999 5.89C8.18999 5.41 7.58999 5.13 6.81999 5.13V5.73C7.42999 5.73 7.84999 5.95 8.12999 6.28C8.40999 6.62 8.55999 7.11 8.55999 7.71H9.15999ZM6.81999 8.54C6.65999 8.54 6.56999 8.48 6.49999 8.37C6.42999 8.24 6.37999 8.02 6.37999 7.71H5.77999C5.77999 8.06 5.82999 8.41 5.98999 8.68C6.15999 8.97 6.43999 9.14 6.81999 9.14V8.54ZM6.37999 7.71C6.37999 7.4 6.42999 7.17 6.50999 7.03C6.56999 6.92 6.65999 6.86 6.81999 6.86V6.26C6.43999 6.26 6.15999 6.44 5.98999 6.73C5.82999 7 5.77999 7.35 5.77999 7.71H6.37999ZM6.81999 6.86C6.97999 6.86 7.06999 6.92 7.13999 7.04C7.22999 7.17 7.27999 7.4 7.27999 7.71H7.87999C7.87999 7.35 7.81999 7 7.65999 6.73C7.47999 6.44 7.19999 6.26 6.81999 6.26V6.86ZM7.27999 7.71C7.27999 8.02 7.22999 8.24 7.13999 8.37C7.07999 8.48 6.98999 8.54 6.81999 8.54V9.14C7.19999 9.14 7.47999 8.97 7.65999 8.68C7.81999 8.41 7.87999 8.07 7.87999 7.71H7.27999ZM12.57 9.32C11.81 9.32 11.21 9.6 10.81 10.08C10.42 10.56 10.24 11.21 10.24 11.9H10.84C10.84 11.3 10.99 10.8 11.27 10.46C11.55 10.13 11.96 9.92 12.57 9.92V9.32ZM10.24 11.9C10.24 12.59 10.42 13.23 10.81 13.71C11.21 14.19 11.81 14.46 12.57 14.46V13.86C11.96 13.86 11.54 13.65 11.27 13.32C10.99 12.99 10.84 12.5 10.84 11.9H10.24ZM12.57 14.46C13.33 14.46 13.93 14.19 14.34 13.71C14.73 13.24 14.91 12.59 14.91 11.9H14.31C14.31 12.5 14.16 12.99 13.88 13.32C13.6 13.65 13.18 13.86 12.57 13.86V14.46ZM14.91 11.9C14.91 11.21 14.73 10.56 14.34 10.08C13.94 9.6 13.34 9.32 12.57 9.32V9.92C13.18 9.92 13.6 10.13 13.88 10.47C14.16 10.8 14.31 11.3 14.31 11.9H14.91ZM12.57 12.73C12.4 12.73 12.32 12.67 12.25 12.56C12.17 12.43 12.12 12.21 12.12 11.9H11.52C11.52 12.25 11.58 12.6 11.74 12.86C11.91 13.15 12.19 13.33 12.57 13.33V12.73ZM12.12 11.9C12.12 11.59 12.17 11.36 12.25 11.22C12.32 11.11 12.41 11.05 12.57 11.05V10.45C12.19 10.45 11.91 10.63 11.73 10.92C11.58 11.19 11.52 11.54 11.52 11.9H12.12ZM12.57 11.05C12.73 11.05 12.82 11.11 12.89 11.23C12.97 11.36 13.02 11.59 13.02 11.9H13.62C13.62 11.54 13.57 11.19 13.41 10.92C13.23 10.63 12.95 10.45 12.57 10.45V11.05ZM13.02 11.9C13.02 12.21 12.97 12.42 12.89 12.56C12.83 12.67 12.73 12.73 12.57 12.73V13.33C12.94 13.33 13.23 13.16 13.41 12.87C13.57 12.6 13.62 12.25 13.62 11.9H13.02Z" fill="white"/>
</g>
<defs>
<clipPath id="clip0_2197_434">
<rect width="20" height="20" fill="white"/>
</clipPath>
</defs>
</svg>
