<svg width="13" height="13" viewBox="0 0 13 13" fill="none" xmlns="http://www.w3.org/2000/svg">
<path d="M12.0295 8.28477L9.26915 7.04785L9.26153 7.04434C9.11823 6.98304 8.9619 6.95845 8.8067 6.97277C8.65151 6.98709 8.50233 7.03988 8.37266 7.12637C8.35739 7.13645 8.34272 7.14741 8.32872 7.15918L6.90254 8.375C5.99903 7.93613 5.06622 7.01035 4.62735 6.11855L5.84493 4.6707C5.85665 4.65605 5.86778 4.64141 5.87833 4.62559C5.96295 4.49627 6.0143 4.34804 6.02779 4.19409C6.04128 4.04013 6.01651 3.88523 5.95567 3.74316V3.73613L4.71524 0.971093C4.63481 0.785506 4.49652 0.630907 4.32101 0.530374C4.1455 0.429841 3.94218 0.388766 3.74141 0.413281C2.94745 0.517758 2.21867 0.907676 1.69118 1.51021C1.16369 2.11275 0.87357 2.88669 0.875005 3.6875C0.875005 8.33984 4.66016 12.125 9.31251 12.125C10.1133 12.1264 10.8873 11.8363 11.4898 11.3088C12.0923 10.7813 12.4822 10.0526 12.5867 9.25859C12.6113 9.05789 12.5703 8.85462 12.4699 8.67912C12.3694 8.50362 12.215 8.36529 12.0295 8.28477ZM9.31251 11.1875C7.32405 11.1853 5.41765 10.3945 4.0116 8.9884C2.60555 7.58235 1.81468 5.67596 1.81251 3.6875C1.8103 3.11533 2.01644 2.56191 2.39243 2.13061C2.76842 1.69931 3.28854 1.41961 3.85567 1.34375C3.85544 1.34609 3.85544 1.34844 3.85567 1.35078L5.08614 4.10469L3.87501 5.5543C3.86271 5.56844 3.85155 5.58353 3.84161 5.59941C3.75343 5.73472 3.70171 5.8905 3.69144 6.05168C3.68117 6.21285 3.71272 6.37394 3.78301 6.51934C4.31387 7.60508 5.40782 8.69082 6.50528 9.22109C6.65174 9.29073 6.81377 9.32118 6.97552 9.30948C7.13727 9.29777 7.29322 9.2443 7.42813 9.1543C7.44317 9.14416 7.45765 9.13321 7.47149 9.12148L8.8959 7.90625L11.6498 9.13965H11.6563C11.5813 9.70758 11.302 10.2287 10.8707 10.6057C10.4393 10.9826 9.88535 11.1894 9.31251 11.1875Z" fill="#222222"/>
</svg>
