<svg width="16" height="16" viewBox="0 0 16 16" fill="none" xmlns="http://www.w3.org/2000/svg">
<path d="M15.4883 7.04245L12.3172 9.80995L13.2671 13.9303C13.3174 14.1457 13.303 14.3711 13.2259 14.5784C13.1487 14.7857 13.0122 14.9656 12.8333 15.0957C12.6544 15.2258 12.4411 15.3003 12.2202 15.3099C11.9992 15.3194 11.7803 15.2636 11.5909 15.1495L7.99718 12.9698L4.41124 15.1495C4.2218 15.2636 4.0029 15.3194 3.78193 15.3099C3.56095 15.3003 3.34769 15.2258 3.16882 15.0957C2.98994 14.9656 2.85339 14.7857 2.77623 14.5784C2.69907 14.3711 2.68472 14.1457 2.73499 13.9303L3.68351 9.81417L0.51171 7.04245C0.34395 6.89776 0.222643 6.70677 0.162999 6.49341C0.103356 6.28006 0.108032 6.05384 0.17644 5.84313C0.244849 5.63243 0.373945 5.44661 0.54754 5.30898C0.721135 5.17134 0.931501 5.08803 1.15226 5.06948L5.33304 4.70737L6.96499 0.81487C7.05021 0.610623 7.19396 0.436158 7.37814 0.313441C7.56231 0.190725 7.77868 0.125244 7.99999 0.125244C8.22131 0.125244 8.43767 0.190725 8.62185 0.313441C8.80602 0.436158 8.94977 0.610623 9.03499 0.81487L10.6719 4.70737L14.8512 5.06948C15.072 5.08803 15.2824 5.17134 15.456 5.30898C15.6296 5.44661 15.7587 5.63243 15.8271 5.84313C15.8955 6.05384 15.9001 6.28006 15.8405 6.49341C15.7809 6.70677 15.6595 6.89776 15.4918 7.04245H15.4883Z" fill="white"/>
</svg>
