<svg width="20" height="20" viewBox="0 0 20 20" fill="none" xmlns="http://www.w3.org/2000/svg">
<rect x="0.5" y="0.5" width="19" height="19" rx="3.5" stroke="white"/>
<path d="M15.3053 7.12934C15.3257 7.06224 15.3355 6.99997 15.3328 6.94445C15.3262 6.78354 15.2155 6.66666 14.9551 6.66666H13.7915C13.5319 6.66666 13.3959 6.80548 13.3131 6.96077C13.2916 7.00127 13.2733 7.04284 13.2527 7.08386C13.1072 7.37408 12.4573 8.63383 11.7218 9.49998C11.4507 9.78488 11.3129 9.77777 11.1662 9.77777C11.0875 9.77777 10.8889 9.68264 10.8889 9.42176V7.1173C10.8889 6.80888 10.812 6.66666 10.5636 6.66666H8.49735C8.31648 6.66666 8.22226 6.80888 8.22226 6.95156C8.22226 7.248 8.62134 7.31911 8.6667 8.14979V9.76C8.6667 10.1511 8.59868 10.2222 8.45204 10.2222C8.05647 10.2222 7.27781 8.88888 6.7565 7.14133C6.64361 6.79735 6.53072 6.66666 6.23695 6.66666H5.0623C4.72319 6.66666 4.66675 6.83291 4.66675 7.01069C4.66675 7.33109 4.93341 9.06356 6.38895 11.0555C7.44451 12.5 8.83512 13.3333 10.0662 13.3333C10.812 13.3333 10.8884 13.1436 10.8884 12.8471V11.5262C10.8889 11.1702 10.9702 11.1111 11.2076 11.1111C11.3769 11.1111 11.7222 11.2222 12.3889 12C13.1578 12.8969 13.2973 13.3333 13.7382 13.3333H14.9017C15.172 13.3333 15.327 13.22 15.3333 13C15.3346 12.944 15.3266 12.8813 15.3084 12.8115C15.2221 12.5556 14.8266 11.9297 14.3333 11.3333C14.0599 11.0031 13.7902 10.676 13.6662 10.4982C13.5831 10.3822 13.5515 10.3004 13.5555 10.2222V10.2222C13.5619 10.092 13.7569 9.81714 13.8303 9.70936C14.2223 9.13356 15.1892 7.6927 15.3053 7.12934Z" fill="white"/>
</svg>
